<svg width="64" height="64" viewBox="0 0 64 64" fill="none" xmlns="http://www.w3.org/2000/svg">
<path d="M32 53.2519C43.7371 53.2519 53.2519 43.7371 53.2519 32C53.2519 20.2628 43.7371 10.748 32 10.748C20.2628 10.748 10.748 20.2628 10.748 32C10.748 43.7371 20.2628 53.2519 32 53.2519Z" fill="white" stroke="#F23A4B" stroke-width="4"/>
<path d="M24.0459 42.0359C23.0917 42.0359 22.1954 41.8568 21.3571 41.4986C20.1112 40.966 19.7311 40.6633 19.1765 39.9401C17.5695 37.8442 17.837 35.9633 17.837 34.8885H20.7132C20.7132 36.8097 21.2634 38.2832 21.9056 38.7309C22.5477 39.1699 23.2612 39.3848 24.0459 39.3758C24.7505 39.3668 25.3703 39.2012 25.9054 38.8787C26.4405 38.5563 26.8597 38.1219 27.1629 37.5755C27.4661 37.0202 27.6177 36.3842 27.6177 35.6677C27.6177 34.5929 27.2833 33.7062 26.6144 33.0076C25.9544 32.309 25.0894 31.9596 24.0192 31.9596C23.7159 31.9596 23.4038 32.0044 23.0828 32.0939C22.7706 32.1836 22.4763 32.2999 22.1999 32.4433L20.8889 30.2265L27.6846 24.1941L27.9789 25.0002H18.6147V22.3266H30.1996V25.0002L24.5543 30.4549L24.5275 29.5413C25.7404 29.5413 26.7928 29.8145 27.6846 30.3608C28.5765 30.8983 29.2631 31.6327 29.7447 32.5642C30.2353 33.4867 30.4805 34.5213 30.4805 35.6677C30.4805 36.9038 30.1907 38.001 29.611 38.9593C29.0402 39.9176 28.2688 40.67 27.2967 41.2164C26.3335 41.7628 25.2499 42.0359 24.0459 42.0359ZM39.3435 42.0763C38.0325 42.0763 36.8731 41.7897 35.8653 41.2164C34.8576 40.6343 34.0639 39.837 33.4841 38.8249C32.9134 37.8129 32.628 36.6484 32.628 35.3319V28.668C32.628 27.3514 32.9134 26.187 33.4841 25.1749C34.0639 24.1628 34.8576 23.3701 35.8653 22.7969C36.8731 22.2147 38.0325 21.9236 39.3435 21.9236C40.6544 21.9236 41.8139 22.2147 42.8216 22.7969C43.8295 23.3701 44.6187 24.1628 45.1895 25.1749C45.7692 26.187 46.059 27.3514 46.059 28.668V35.3319C46.059 36.6484 45.7692 37.8129 45.1895 38.8249C44.6187 39.837 43.8295 40.6343 42.8216 41.2164C41.8139 41.7897 40.6544 42.0763 39.3435 42.0763ZM39.3435 39.3892C40.0571 39.3892 40.7035 39.219 41.2832 38.8787C41.8718 38.5294 42.34 38.0636 42.6878 37.4814C43.0357 36.8903 43.2096 36.232 43.2096 35.5065V28.4665C43.2096 27.75 43.0357 27.1005 42.6878 26.5184C42.34 25.9272 41.8718 25.4615 41.2832 25.1211C40.7035 24.7719 40.0571 24.5971 39.3435 24.5971C38.63 24.5971 37.979 24.7719 37.3904 25.1211C36.8107 25.4615 36.3469 25.9272 35.9991 26.5184C35.6513 27.1005 35.4773 27.75 35.4773 28.4665V35.5065C35.4773 36.232 35.6513 36.8903 35.9991 37.4814C36.3469 38.0636 36.8107 38.5294 37.3904 38.8787C37.979 39.219 38.63 39.3892 39.3435 39.3892Z" fill="#2A2A2A"/>
</svg>
