<svg width="64" height="64" viewBox="0 0 64 64" fill="none" xmlns="http://www.w3.org/2000/svg">
<path d="M32.3247 53.649C20.5476 53.649 11 44.1016 11 32.3249C11 20.5475 20.5476 11 32.3247 11C44.1018 11 53.6493 20.5475 53.6493 32.3249C53.6493 44.1016 44.1018 53.649 32.3247 53.649Z" fill="#0063B8" stroke="#0063B8" stroke-width="4" stroke-miterlimit="10"/>
<path d="M21 39.5432V43.0649H25.0617C24.9206 42.0878 24.4327 41.1942 23.6867 40.5477C22.9409 39.9009 21.9871 39.5444 21 39.5432Z" fill="white"/>
<path d="M26.0407 28.9781H21.5859V30.152H26.0407L26.6278 29.5652L26.0407 28.9781Z" fill="white"/>
<path d="M32.0228 35.9452C31.7196 36.0716 31.3716 35.9283 31.245 35.6253C31.1186 35.3222 31.2619 34.974 31.5649 34.8476L33.3258 34.1022V33.075H31.5649C31.2409 33.075 30.9779 32.8122 30.9779 32.488C30.9779 32.1639 31.2409 31.9012 31.5649 31.9012H33.3258V24.2827H29.7043L27.8731 26.1139C27.7628 26.2249 27.6129 26.2876 27.4562 26.2876C27.2998 26.2876 27.1499 26.2249 27.0396 26.1139L25.2082 24.2827H21.5869V27.8044H26.2824C26.6053 27.8044 26.6228 27.8984 27.8731 29.1485C27.9841 29.2587 28.0466 29.4086 28.0466 29.5653C28.0466 29.7217 27.9841 29.8717 27.8731 29.9819L26.6993 31.1557C26.441 31.3965 26.6053 31.3259 21.5868 31.3259C21.5868 36.4093 21.6925 35.1352 21.1055 38.3693V38.3695C22.386 38.3957 23.6135 38.8864 24.5594 39.7501C25.5052 40.614 26.105 41.792 26.2471 43.0651H39.1954V36.6088L37.4346 36.4386V38.3696C37.4346 38.6937 37.1716 38.9565 36.8475 38.9565C36.5235 38.9565 36.2605 38.6937 36.2605 38.3696V36.2977L35.4504 36.2214C35.3858 36.2214 35.5267 35.9984 34.4116 38.0644C34.2577 38.3496 33.9016 38.4561 33.6163 38.302C33.3311 38.1482 33.2246 37.792 33.3787 37.5067L34.3061 35.7987C34.0765 35.6401 33.8777 35.4412 33.7191 35.2117L32.0228 35.9452Z" fill="white"/>
<path d="M40.3691 36.6968V43.065H45.6517V42.5309C45.6503 41.0768 45.1091 39.675 44.1331 38.5972C43.1572 37.5193 41.8159 36.8421 40.3691 36.6967V36.6968Z" fill="white"/>
<path d="M21 45.4129C21 45.5686 21.0619 45.7177 21.172 45.828C21.282 45.938 21.4314 45.9997 21.587 45.9997H28.9237C28.9917 45.7201 29.1867 45.4884 29.4504 45.3732C29.7142 45.2581 30.0164 45.2728 30.2678 45.4129L31.2714 45.9999L45.0649 45.9997C45.2206 45.9997 45.3699 45.938 45.48 45.828C45.59 45.7177 45.6519 45.5686 45.6519 45.4129V44.2389H21V45.4129Z" fill="white"/>
<path d="M27.4565 24.8694L29.2173 23.1085H33.9131V19H21V23.1085H25.6955L27.4565 24.8694Z" fill="white"/>
</svg>
