<svg width="64" height="64" viewBox="0 0 64 64" fill="none" xmlns="http://www.w3.org/2000/svg">
<path d="M32.3247 53.649C20.5476 53.649 11 44.1016 11 32.3249C11 20.5475 20.5476 11 32.3247 11C44.1018 11 53.6493 20.5475 53.6493 32.3249C53.6493 44.1016 44.1018 53.649 32.3247 53.649Z" fill="#0063B8" stroke="#0063B8" stroke-width="4" stroke-miterlimit="10"/>
<path d="M45.1934 26.3391L29.4651 17.2364C28.5982 16.7411 27.4216 17.0506 26.9263 17.9175L22.5916 25.4104C22.0961 26.2772 22.4058 27.4538 23.2727 27.9491L27.8549 30.6119L26.5545 32.8411L28.66 34.0795L26.7403 39.6526L23.1489 41.1388V38.2284H19V46.7117H23.1489V43.8014L28.7841 41.5102L30.8896 35.3177L33.1188 36.6181L34.4192 34.3889L39.0014 37.0516C39.8683 37.5469 41.0449 37.2374 41.5402 36.3705L45.8749 28.8777C46.3702 28.0108 46.0604 26.8342 45.1936 26.3389L45.1934 26.3391Z" fill="white"/>
<path d="M43.3184 36.0506L46.4764 30.5811L48.7287 31.8814L45.5706 37.351L43.3184 36.0506Z" fill="white"/>
</svg>
