<svg width="64" height="64" viewBox="0 0 64 64" fill="none" xmlns="http://www.w3.org/2000/svg">
<path d="M58.8017 52.0836L34.3383 9.57781C33.1274 7.47403 30.0919 7.47403 28.8811 9.57781L4.40724 52.1019C3.24794 54.1163 4.70185 56.6306 7.0259 56.6306H56.1722C58.5058 56.6306 59.9657 54.1061 58.8017 52.0836Z" fill="#E9B803"/>
<path d="M10.0122 51.8709L31.606 14.469L53.1998 51.8709H10.0122ZM56.6851 52.741L32.6885 11.1775C32.4625 10.7862 32.058 10.5526 31.606 10.5526C31.1541 10.5526 30.7494 10.7862 30.5236 11.1775L6.52691 52.741C6.30095 53.1323 6.30092 53.5998 6.52688 53.9911C6.75274 54.3824 7.15744 54.616 7.60939 54.616H55.6029C56.0545 54.616 56.4591 54.3824 56.6851 53.9911C56.9111 53.5998 56.9111 53.1323 56.6851 52.741Z" fill="#2A2A2A"/>
<path d="M38.4765 48.3564C37.8206 48.3564 37.2883 47.8242 37.2883 47.1683C37.2883 46.5125 37.8206 45.9802 38.4765 45.9802C39.1323 45.9802 39.6646 46.5125 39.6646 47.1683C39.6646 47.8242 39.1323 48.3564 38.4765 48.3564ZM38.4765 44.4754C36.989 44.4754 35.7832 45.6809 35.7832 47.1683C35.7832 48.6561 36.989 49.8616 38.4765 49.8616C39.9639 49.8616 41.1697 48.6561 41.1697 47.1683C41.1697 45.6809 39.9639 44.4754 38.4765 44.4754Z" fill="#2A2A2A"/>
<path d="M27.3865 48.3564C26.7306 48.3564 26.1984 47.8242 26.1984 47.1683C26.1984 46.5125 26.7306 45.9802 27.3865 45.9802C28.0424 45.9802 28.5747 46.5125 28.5747 47.1683C28.5747 47.8242 28.0424 48.3564 27.3865 48.3564ZM27.3865 44.4754C25.899 44.4754 24.6934 45.6809 24.6934 47.1683C24.6934 48.6561 25.899 49.8616 27.3865 49.8616C28.8741 49.8616 30.0796 48.6561 30.0796 47.1683C30.0796 45.6809 28.8741 44.4754 27.3865 44.4754Z" fill="#2A2A2A"/>
<path d="M23.1073 47.8702L16.7309 48.4815L17.0802 48.515H23.1073V48.643L15.7012 49.3526L16.0502 49.3861H23.1073H23.5826H23.6618V48.515V47.8171V39.6435H23.1073V47.8702Z" fill="#2A2A2A"/>
<path d="M35.8831 40.99V36.7577H35.3868V38.059L34.5252 40.4972H31.8225V41.386L31.2681 42.1781V43.6039L28.4957 42.2574L29.786 40.7987L29.6046 40.1185L30.0798 39.317L29.9041 39.1785L30.0019 39.0379L30.9122 39.6713L31.0931 39.4112L29.0289 37.9749L30.3385 34.4156H36.2801L37.6142 40.99H35.8831ZM28.4455 39.5607L28.9159 38.2825L29.5467 38.7212L29.4678 38.8347L29.2878 38.6927L28.4456 39.5607H28.4455ZM39.15 40.99L37.8159 34.4156L38.3178 33.5645V32.5145H29.9215V34.0986L29.5254 34.6028V33.3065H28.9709V35.4207L26.9012 40.99L26.1986 42.8791V32.9898H25.0104V40.99H24.8108V32.9898H23.8223V49.3861H23.9807V47.0892H24.3791C24.4211 45.4636 25.751 44.1583 27.3867 44.1583C29.0493 44.1583 30.3967 45.5057 30.3967 47.1682C30.3967 47.5605 30.3215 47.9344 30.1852 48.2773H35.6776C35.5414 47.9344 35.4662 47.5605 35.4662 47.1682C35.4662 45.5057 36.8136 44.1583 38.4761 44.1583C40.1387 44.1583 41.4861 45.5057 41.4861 47.1682C41.4861 47.5602 41.4109 47.9341 41.2743 48.2773H41.5702L42.1988 46.5279V40.99H39.15Z" fill="#2A2A2A"/>
</svg>
