<svg width="64" height="64" viewBox="0 0 64 64" fill="none" xmlns="http://www.w3.org/2000/svg">
<path d="M37.2729 33.6359C37.2729 36.3452 35.0739 38.5447 32.3641 38.5447C31.0088 38.5447 29.7813 37.9952 28.8931 37.107C28.0048 36.2188 27.4551 34.9913 27.4551 33.636C27.4551 30.9273 29.6545 28.7272 32.3641 28.7272C35.0715 28.7272 37.2729 30.9275 37.2729 33.6359Z" fill="#0063B8"/>
<path d="M45.0018 13.4544H41.5415L36.0873 18.9096H39.5473L45.0015 13.4544H45.0018ZM41.0898 11.2727H47.6351V11.273C47.9143 11.273 48.1932 11.3792 48.4062 11.5921C48.8321 12.018 48.8324 12.7091 48.4065 13.135L47.6351 12.3635L48.4062 13.135L40.7703 20.7718C40.5728 20.9694 40.3003 21.0916 39.9989 21.0916H33.454C33.175 21.0916 32.8958 20.9851 32.6829 20.7722C32.257 20.3463 32.2566 19.6552 32.6825 19.2293H32.6829L40.3187 11.5925C40.5159 11.3952 40.7888 11.273 41.0898 11.273L41.0898 11.2727Z" fill="#0063B8"/>
<path d="M35.3567 21.0917L37.5548 23.6558L37.5568 23.6541C37.9489 24.1114 37.896 24.8002 37.4386 25.1922C37.2327 25.3687 36.9799 25.4547 36.7285 25.4547H30.1828C29.8235 25.4547 29.5045 25.2806 29.3056 25.0124L25.9454 21.0917H20.8019C20.079 21.0917 19.4245 21.3847 18.951 21.8584C18.4776 22.3319 18.1843 22.9868 18.1843 23.7093V51.2001C18.1843 51.923 18.4773 52.5775 18.951 53.051C19.4245 53.5244 20.0794 53.8177 20.8019 53.8177H43.9291C44.6519 53.8177 45.3065 53.5248 45.7799 53.051C46.2534 52.5776 46.5467 51.9227 46.5467 51.2001V23.7093C46.5467 22.9865 46.2537 22.3319 45.7799 21.8584C45.3065 21.385 44.6516 21.0917 43.9291 21.0917L35.3567 21.0917ZM34.3603 23.273L32.2118 20.767C32.0176 20.5698 31.8974 20.2996 31.8974 20.0009C31.8974 19.3986 32.3859 18.91 32.9883 18.91H43.9287C45.2535 18.91 46.4539 19.4474 47.3224 20.3159C48.1909 21.1844 48.7283 22.3844 48.7283 23.7096V51.2004C48.7283 52.5253 48.1909 53.7256 47.3224 54.5941C46.4539 55.4627 45.2539 56 43.9287 56H20.8015C19.4767 56 18.2764 55.4626 17.4078 54.5941C16.5393 53.7256 16.002 52.5256 16.002 51.2004V23.7096C16.002 22.3844 16.5393 21.1844 17.4078 20.3159C18.2763 19.4474 19.4763 18.91 20.8015 18.91H26.4432C26.7505 18.9104 27.0559 19.0396 27.2715 19.2911L26.4432 20.0012L27.2699 19.2937L30.6806 23.2734H34.3603L34.3603 23.273Z" fill="#0063B8"/>
<path d="M32.1613 20.7086L23.1391 10.1821H19.4598L27.2687 19.2934L30.6802 23.2731H34.3592L32.1613 20.7086ZM23.6372 9.091L24.4639 8.38354L37.5043 23.5976C37.6985 23.7945 37.8187 24.065 37.8187 24.3637C37.8187 24.966 37.3302 25.4546 36.7278 25.4546H30.1828C29.8755 25.4542 29.5704 25.325 29.3545 25.0739L29.3562 25.0712L25.6159 20.7082L16.316 9.85693C16.1218 9.66006 16.002 9.38953 16.002 9.09087C16.002 8.48854 16.4904 8 17.0928 8H23.6378C23.9452 8.00033 24.2505 8.12957 24.4661 8.38102L23.6378 9.09117L23.6372 9.091Z" fill="#0063B8"/>
<path d="M27.9991 23.2723C27.3967 23.2723 26.9082 23.7608 26.9082 24.3632C26.9082 24.9656 27.3967 25.4541 27.9991 25.4541H38.9086C39.511 25.4541 39.9995 24.9656 39.9995 24.3632C39.9995 23.7608 39.511 23.2723 38.9086 23.2723H27.9991Z" fill="#0063B8"/>
<path d="M38.5326 38.9186C40.1119 40.498 41.0889 42.68 41.0889 45.0893C41.0889 45.6916 40.6004 46.1802 39.998 46.1802H24.7256C24.1233 46.1802 23.6348 45.6917 23.6348 45.0893C23.6348 42.68 24.6117 40.498 26.1911 38.9186C27.7704 37.3393 29.9524 36.3627 32.3617 36.3627C34.7714 36.3627 36.9536 37.3396 38.5326 38.9186Z" fill="#0063B8"/>
<path d="M17.0909 48.3622C16.4885 48.3622 16 48.8507 16 49.4531C16 50.0554 16.4885 50.5439 17.0909 50.5439H47.6356C48.238 50.5439 48.7265 50.0554 48.7265 49.4531C48.7265 48.8507 48.238 48.3622 47.6356 48.3622H17.0909Z" fill="#0063B8"/>
<path d="M39.9991 29.8181C39.3967 29.8181 38.9082 30.3066 38.9082 30.909C38.9082 31.5113 39.3967 31.9999 39.9991 31.9999H44.3627C44.9651 31.9999 45.4536 31.5114 45.4536 30.909C45.4536 30.3067 44.9651 29.8181 44.3627 29.8181H39.9991Z" fill="#0063B8"/>
<path d="M39.9991 33.0907C39.3967 33.0907 38.9082 33.5792 38.9082 34.1816C38.9082 34.7839 39.3967 35.2724 39.9991 35.2724H44.3627C44.9651 35.2724 45.4536 34.7839 45.4536 34.1816C45.4536 33.5792 44.9651 33.0907 44.3627 33.0907H39.9991Z" fill="#0063B8"/>
<path d="M20.3624 29.8181C19.76 29.8181 19.2715 30.3066 19.2715 30.909C19.2715 31.5113 19.76 31.9999 20.3624 31.9999H24.7253C25.3277 31.9999 25.8162 31.5114 25.8162 30.909C25.8162 30.3067 25.3277 29.8181 24.7253 29.8181H20.3624Z" fill="#0063B8"/>
<path d="M20.3624 33.0907C19.76 33.0907 19.2715 33.5792 19.2715 34.1816C19.2715 34.7839 19.76 35.2724 20.3624 35.2724H24.7253C25.3277 35.2724 25.8162 34.7839 25.8162 34.1816C25.8162 33.5792 25.3277 33.0907 24.7253 33.0907H20.3624Z" fill="#0063B8"/>
</svg>
