<svg width="64" height="64" viewBox="0 0 64 64" fill="none" xmlns="http://www.w3.org/2000/svg">
<path d="M37.2729 33.6358C37.2729 36.3451 35.0739 38.5446 32.3641 38.5446C31.0088 38.5446 29.7813 37.9951 28.8931 37.1069C28.0048 36.2186 27.4551 34.9911 27.4551 33.6358C27.4551 30.9271 29.6545 28.7271 32.3641 28.7271C35.0715 28.7271 37.2729 30.9274 37.2729 33.6358Z" fill="#B05433"/>
<path d="M45.0018 13.4546H41.5415L36.0873 18.9098H39.5473L45.0015 13.4546H45.0018ZM41.0898 11.2729H47.6351V11.2733C47.9143 11.2733 48.1932 11.3794 48.4062 11.5924C48.8321 12.0183 48.8324 12.7093 48.4065 13.1352L47.6351 12.3638L48.4062 13.1352L40.7703 20.7721C40.5728 20.9696 40.3003 21.0918 39.9989 21.0918H33.454C33.175 21.0918 32.8958 20.9854 32.6829 20.7724C32.257 20.3465 32.2566 19.6555 32.6825 19.2296H32.6829L40.3187 11.5927C40.5159 11.3955 40.7888 11.2733 41.0898 11.2733L41.0898 11.2729Z" fill="#B05433"/>
<path d="M35.3567 21.0919L37.5548 23.6559L37.5568 23.6542C37.9489 24.1116 37.896 24.8003 37.4386 25.1923C37.2327 25.3688 36.9799 25.4548 36.7285 25.4548H30.1828C29.8235 25.4548 29.5045 25.2807 29.3056 25.0125L25.9454 21.0918H20.8019C20.079 21.0918 19.4245 21.3848 18.951 21.8586C18.4776 22.332 18.1843 22.9869 18.1843 23.7095V51.2002C18.1843 51.9231 18.4773 52.5777 18.951 53.0511C19.4245 53.5246 20.0794 53.8179 20.8019 53.8179H43.9291C44.6519 53.8179 45.3065 53.5249 45.7799 53.0511C46.2534 52.5777 46.5467 51.9228 46.5467 51.2002V23.7095C46.5467 22.9866 46.2537 22.332 45.7799 21.8586C45.3065 21.3851 44.6516 21.0918 43.9291 21.0918L35.3567 21.0919ZM34.3603 23.2732L32.2118 20.7671C32.0176 20.5699 31.8974 20.2997 31.8974 20.001C31.8974 19.3987 32.3859 18.9102 32.9883 18.9102H43.9287C45.2535 18.9102 46.4539 19.4475 47.3224 20.316C48.1909 21.1846 48.7283 22.3845 48.7283 23.7098V51.2005C48.7283 52.5254 48.1909 53.7257 47.3224 54.5943C46.4539 55.4628 45.2539 56.0001 43.9287 56.0001H20.8015C19.4767 56.0001 18.2764 55.4628 17.4078 54.5943C16.5393 53.7257 16.002 52.5258 16.002 51.2005V23.7098C16.002 22.3845 16.5393 21.1846 17.4078 20.316C18.2763 19.4475 19.4763 18.9102 20.8015 18.9102H26.4432C26.7505 18.9105 27.0559 19.0397 27.2715 19.2912L26.4432 20.0013L27.2699 19.2939L30.6806 23.2735H34.3603L34.3603 23.2732Z" fill="#B05433"/>
<path d="M32.1613 20.7086L23.1391 10.1821H19.4598L27.2687 19.2934L30.6802 23.2731H34.3592L32.1613 20.7086ZM23.6372 9.091L24.4639 8.38354L37.5043 23.5976C37.6985 23.7945 37.8187 24.065 37.8187 24.3637C37.8187 24.966 37.3302 25.4546 36.7278 25.4546H30.1828C29.8755 25.4542 29.5704 25.325 29.3545 25.0739L29.3562 25.0712L25.6159 20.7082L16.316 9.85693C16.1218 9.66006 16.002 9.38953 16.002 9.09087C16.002 8.48854 16.4904 8 17.0928 8H23.6378C23.9452 8.00033 24.2505 8.12957 24.4661 8.38102L23.6378 9.09117L23.6372 9.091Z" fill="#B05433"/>
<path d="M27.9991 23.2725C27.3967 23.2725 26.9082 23.761 26.9082 24.3633C26.9082 24.9657 27.3967 25.4542 27.9991 25.4542H38.9086C39.511 25.4542 39.9995 24.9657 39.9995 24.3633C39.9995 23.761 39.511 23.2725 38.9086 23.2725H27.9991Z" fill="#B05433"/>
<path d="M38.5326 38.9188C40.1119 40.4981 41.0889 42.6801 41.0889 45.0894C41.0889 45.6918 40.6004 46.1803 39.998 46.1803H24.7256C24.1233 46.1803 23.6348 45.6918 23.6348 45.0894C23.6348 42.6801 24.6117 40.4981 26.1911 38.9188C27.7704 37.3394 29.9524 36.3628 32.3617 36.3628C34.7714 36.3628 36.9536 37.3398 38.5326 38.9188Z" fill="#B05433"/>
<path d="M17.0909 48.3623C16.4885 48.3623 16 48.8508 16 49.4532C16 50.0556 16.4885 50.544 17.0909 50.544H47.6356C48.238 50.544 48.7265 50.0556 48.7265 49.4532C48.7265 48.8508 48.238 48.3623 47.6356 48.3623H17.0909Z" fill="#B05433"/>
<path d="M39.9991 29.8179C39.3967 29.8179 38.9082 30.3064 38.9082 30.9087C38.9082 31.5111 39.3967 31.9996 39.9991 31.9996H44.3627C44.9651 31.9996 45.4536 31.5111 45.4536 30.9087C45.4536 30.3064 44.9651 29.8179 44.3627 29.8179H39.9991Z" fill="#B05433"/>
<path d="M39.9991 33.0908C39.3967 33.0908 38.9082 33.5793 38.9082 34.1817C38.9082 34.7841 39.3967 35.2726 39.9991 35.2726H44.3627C44.9651 35.2726 45.4536 34.7841 45.4536 34.1817C45.4536 33.5793 44.9651 33.0908 44.3627 33.0908H39.9991Z" fill="#B05433"/>
<path d="M20.3624 29.8179C19.76 29.8179 19.2715 30.3064 19.2715 30.9087C19.2715 31.5111 19.76 31.9996 20.3624 31.9996H24.7253C25.3277 31.9996 25.8162 31.5111 25.8162 30.9087C25.8162 30.3064 25.3277 29.8179 24.7253 29.8179H20.3624Z" fill="#B05433"/>
<path d="M20.3624 33.0908C19.76 33.0908 19.2715 33.5793 19.2715 34.1817C19.2715 34.7841 19.76 35.2726 20.3624 35.2726H24.7253C25.3277 35.2726 25.8162 34.7841 25.8162 34.1817C25.8162 33.5793 25.3277 33.0908 24.7253 33.0908H20.3624Z" fill="#B05433"/>
</svg>
