<svg width="64" height="64" viewBox="0 0 64 64" fill="none" xmlns="http://www.w3.org/2000/svg">
<path d="M58.8017 52.0835L34.3383 9.57775C33.1274 7.47397 30.0919 7.47397 28.8811 9.57775L4.40724 52.1019C3.24794 54.1162 4.70185 56.6306 7.0259 56.6306H56.1722C58.5058 56.6306 59.9657 54.1061 58.8017 52.0835Z" fill="#E9B803"/>
<path d="M10.0122 51.8708L31.606 14.469L53.1998 51.8708H10.0122ZM56.6851 52.741L32.6885 11.1774C32.4625 10.7861 32.058 10.5525 31.606 10.5525C31.1541 10.5525 30.7494 10.7861 30.5236 11.1774L6.52691 52.741C6.30095 53.1323 6.30092 53.5997 6.52688 53.991C6.75274 54.3823 7.15744 54.6159 7.60939 54.6159H55.6029C56.0545 54.6159 56.4591 54.3823 56.6851 53.991C56.9111 53.5997 56.9111 53.1323 56.6851 52.741Z" fill="#2A2A2A"/>
<path d="M29.5716 27.2855C29.5716 26.0232 30.5948 25 31.8571 25H31.8581C33.1204 25 34.1436 26.0232 34.1436 27.2855L33.572 38.7141C33.572 39.6608 32.8043 40.4285 31.8576 40.4285C30.9109 40.4285 30.1432 39.6607 30.1432 38.7141L29.5716 27.2855Z" fill="#2A2A2A"/>
<path d="M29 46.1429C29 44.5648 30.2791 43.2857 31.8571 43.2857C33.4352 43.2857 34.7143 44.5648 34.7143 46.1429C34.7143 47.7209 33.4352 49 31.8571 49C30.2791 49 29 47.7209 29 46.1429Z" fill="#2A2A2A"/>
</svg>
