<svg width="64" height="64" viewBox="0 0 64 64" fill="none" xmlns="http://www.w3.org/2000/svg">
<path d="M32.3247 53.649C20.5476 53.649 11 44.1016 11 32.3249C11 20.5475 20.5476 11 32.3247 11C44.1018 11 53.6493 20.5475 53.6493 32.3249C53.6493 44.1016 44.1018 53.649 32.3247 53.649Z" fill="#0063B8" stroke="#0063B8" stroke-width="4" stroke-miterlimit="10"/>
<path d="M26.8288 17.2136C22.9632 19.0083 21.0995 21.2862 19.0286 26.7394C15.8533 35.0918 17.1649 40.1308 22.7561 41.1662C24.896 41.5804 25.034 41.7875 25.3102 44.8247L25.4434 47.8125C25.446 47.8691 25.4926 47.9137 25.5493 47.9137V47.9137C25.6078 47.9137 25.6553 47.8663 25.6553 47.8077V44.6867C25.7934 41.9255 26.0695 41.3043 27.519 40.614C28.4854 40.1998 29.7279 39.0954 30.2802 38.198C31.2466 36.7485 31.2466 36.4033 30.2802 35.0918C29.7279 34.1944 29.2447 32.9519 29.2447 32.2616C29.2447 30.743 31.1085 29.9147 32.2129 31.0191C33.3864 32.1926 34.767 31.9165 34.767 30.5359C34.767 28.6722 36.9759 26.9465 39.806 26.4633C42.0839 26.1182 42.3601 26.2562 43.1194 28.0509C43.5335 29.1554 44.4999 31.2262 45.2592 32.6068C46.5708 35.1608 46.5708 35.1608 45.1212 35.9201C44.1548 36.4033 43.7406 37.3697 43.7406 38.9573C43.7406 42.0636 41.9459 43.5132 37.8042 43.5822C35.9405 43.6512 35.1121 43.8583 35.9405 43.9964C36.9068 44.2035 37.5281 44.8937 37.7352 46.1362V46.1362C37.7714 46.3804 38.1279 46.3669 38.1455 46.1207L38.1493 46.0672C38.2184 44.5486 38.5635 44.2035 39.9441 44.2035C42.222 44.2035 44.4309 41.9255 44.4309 39.4405C44.4309 38.198 44.9831 37.0936 45.8805 36.5414L45.896 36.5305C46.6868 35.977 46.9693 34.9376 46.5677 34.0598L45.3973 31.5023C44.2928 29.0173 43.5335 26.3252 43.6026 24.7376C43.8787 18.1109 34.2838 13.7622 26.8288 17.2136ZM34.6244 16.9512C34.7012 17.0141 34.6899 17.1252 34.6773 17.2237C34.5171 18.4751 34.8691 18.7067 35.7334 18.0419C37.8042 16.3162 43.4645 21.0101 42.9123 23.9783C42.7742 24.8757 42.0149 25.2208 40.1512 25.2898C37.4591 25.2898 34.0767 27.9819 34.0767 30.1218C34.0767 31.2952 33.7316 31.3643 32.0749 30.2598C31.0395 29.6386 30.4872 29.6386 29.6589 30.3289C28.2784 31.5023 28.2784 33.09 29.6589 35.0918C30.6253 36.5414 30.6253 36.7485 28.6235 38.6812C26.8288 40.545 24.1367 41.5804 24.6199 40.1998C24.6889 39.9237 24.4818 39.7167 24.0677 39.7167C23.7225 39.7167 23.4464 39.9237 23.5154 40.1998C24.1343 42.0563 19.2739 38.9815 18.349 36.979C18.3416 36.9629 18.3353 36.9482 18.3286 36.9318C18.2249 36.6782 17.3467 34.4865 18.0622 34.7466C18.3383 34.8157 18.5454 34.5396 18.5454 34.1944C18.5454 34.179 18.5451 34.1639 18.5446 34.1491C18.5245 33.6239 17.8569 33.3912 17.9419 32.8726C18.0291 32.3408 18.2705 31.5772 18.5454 30.674C18.8172 29.7808 19.1017 28.5671 19.1998 28.1391C19.2238 28.0344 19.2555 27.9318 19.2954 27.832L20.2449 25.4584C20.2622 25.4151 20.2808 25.3729 20.3015 25.3311C20.5982 24.7337 23.0059 20.0069 25.6553 18.4561C27.45 17.4206 28.0713 17.2826 28.8996 17.9729C29.8304 18.7042 30.1848 18.475 30.0247 17.2237C30.0121 17.1252 30.0008 17.0141 30.0776 16.9512C30.3357 16.7395 31.2452 16.5923 32.351 16.5923C33.4568 16.5923 34.3663 16.7395 34.6244 16.9512Z" fill="white"/>
<path d="M26.2074 19.9747C25.9313 20.3198 26.0694 20.803 26.4145 21.0101C26.7597 21.2862 27.2428 21.1482 27.4499 20.803C27.726 20.4579 27.588 19.9747 27.2428 19.7676C26.8977 19.4915 26.4145 19.6295 26.2074 19.9747Z" fill="white"/>
<path d="M31.7289 19.9747C31.4528 20.3198 31.5909 20.803 31.936 21.0101C32.2811 21.2862 32.7643 21.1482 32.9714 20.803C33.2475 20.4579 33.1095 19.9747 32.7643 19.7676C32.4192 19.4915 31.936 19.6295 31.7289 19.9747Z" fill="white"/>
<path d="M37.2524 19.9747C36.9762 20.3198 37.1143 20.803 37.4594 21.0101C37.8046 21.2862 38.2878 21.1482 38.4949 20.803C38.771 20.4579 38.6329 19.9747 38.2878 19.7676C37.9426 19.4915 37.4594 19.6295 37.2524 19.9747Z" fill="white"/>
<path d="M23.4477 22.7358C23.1716 23.0809 23.3096 23.5641 23.6547 23.7712C23.9999 24.0473 24.4831 23.9093 24.6902 23.5641C24.9663 23.219 24.8282 22.7358 24.4831 22.5287C24.1379 22.2526 23.6547 22.3906 23.4477 22.7358Z" fill="white"/>
<path d="M28.9691 22.7358C28.693 23.0809 28.8311 23.5641 29.1762 23.7712C29.5214 24.0473 30.0046 23.9093 30.2117 23.5641C30.4878 23.219 30.3497 22.7358 30.0046 22.5287C29.6594 22.2526 29.1762 22.3906 28.9691 22.7358Z" fill="white"/>
<path d="M34.4906 22.7358C34.2145 23.0809 34.3526 23.5641 34.6977 23.7712C35.0429 24.0473 35.5261 23.9093 35.7331 23.5641C36.0092 23.219 35.8712 22.7358 35.5261 22.5287C35.1809 22.2526 34.6977 22.3906 34.4906 22.7358Z" fill="white"/>
<path d="M40.0141 22.7358C39.738 23.0809 39.876 23.5641 40.2212 23.7712C40.5663 24.0473 41.0495 23.9093 41.2566 23.5641C41.5327 23.219 41.3946 22.7358 41.0495 22.5287C40.7044 22.2526 40.2212 22.3906 40.0141 22.7358Z" fill="white"/>
<path d="M26.2074 25.4969C25.9313 25.842 26.0694 26.3252 26.4145 26.5323C26.7597 26.8084 27.2428 26.6704 27.4499 26.3252C27.726 25.9801 27.588 25.4969 27.2428 25.2898C26.8977 25.0137 26.4145 25.1518 26.2074 25.4969Z" fill="white"/>
<path d="M31.7289 25.4969C31.4528 25.842 31.5909 26.3252 31.936 26.5323C32.2811 26.8084 32.7643 26.6704 32.9714 26.3252C33.2475 25.9801 33.1095 25.4969 32.7643 25.2898C32.4192 25.0137 31.936 25.1518 31.7289 25.4969Z" fill="white"/>
<path d="M23.4477 28.258C23.1716 28.6031 23.3096 29.0863 23.6547 29.2934C23.9999 29.5695 24.4831 29.4315 24.6902 29.0863C24.9663 28.7412 24.8282 28.258 24.4831 28.0509C24.1379 27.7748 23.6547 27.9129 23.4477 28.258Z" fill="white"/>
<path d="M28.9691 28.258C28.693 28.6031 28.8311 29.0863 29.1762 29.2934C29.5214 29.5695 30.0046 29.4315 30.2117 29.0863C30.4878 28.7412 30.3497 28.258 30.0046 28.0509C29.6594 27.7748 29.1762 27.9129 28.9691 28.258Z" fill="white"/>
<path d="M20.6859 31.0191C20.4098 31.3643 20.5479 31.8474 20.893 32.0545C21.2382 32.3306 21.7214 32.1926 21.9284 31.8474C22.2046 31.5023 22.0665 31.0191 21.7214 30.812C21.3762 30.5359 20.893 30.674 20.6859 31.0191Z" fill="white"/>
<path d="M26.2074 31.0191C25.9313 31.3643 26.0694 31.8474 26.4145 32.0545C26.7597 32.3306 27.2428 32.1926 27.4499 31.8474C27.726 31.5023 27.588 31.0191 27.2428 30.812C26.8977 30.5359 26.4145 30.674 26.2074 31.0191Z" fill="white"/>
<path d="M23.4477 33.7802C23.1716 34.1254 23.3096 34.6086 23.6547 34.8156C23.9999 35.0918 24.4831 34.9537 24.6902 34.6086C24.9663 34.2634 24.8282 33.7802 24.4831 33.5731C24.1379 33.297 23.6547 33.4351 23.4477 33.7802Z" fill="white"/>
<path d="M20.6859 36.5413C20.4098 36.8865 20.5479 37.3697 20.893 37.5767C21.2382 37.8529 21.7214 37.7148 21.9284 37.3697C22.2046 37.0245 22.0665 36.5413 21.7214 36.3342C21.3762 36.0581 20.893 36.1962 20.6859 36.5413Z" fill="white"/>
<path d="M26.2074 36.5413C25.9313 36.8865 26.0694 37.3697 26.4145 37.5767C26.7597 37.8529 27.2428 37.7148 27.4499 37.3697C27.726 37.0245 27.588 36.5413 27.2428 36.3342C26.8977 36.0581 26.4145 36.1962 26.2074 36.5413Z" fill="white"/>
</svg>
