<svg width="64" height="298" viewBox="0 0 64 298" fill="none" xmlns="http://www.w3.org/2000/svg">
<path d="M32.3247 53.649C20.5476 53.649 11 44.1016 11 32.3249C11 20.5475 20.5476 11 32.3247 11C44.1018 11 53.6493 20.5475 53.6493 32.3249C53.6493 44.1016 44.1018 53.649 32.3247 53.649Z" fill="#B05433" stroke="#B05433" stroke-width="4" stroke-miterlimit="10"/>
<path d="M46.4846 32.7375L43.5071 28.2484C43.379 21.4729 37.8575 16 31.0876 16C24.2386 16 18.666 21.6022 18.666 28.4879C18.666 32.3217 20.3586 35.8527 23.3243 38.2369V48H37.299V42.408C38.3578 42.4929 39.3999 42.5368 40.4043 42.5368C40.6986 42.5368 40.9671 42.3698 41.0991 42.1051C42.1324 40.0273 42.8429 37.2871 43.2149 33.9516H45.8391C46.1255 33.9516 46.3888 33.7932 46.5237 33.5395C46.6589 33.286 46.6433 32.9777 46.485 32.7381L46.4846 32.7375ZM34.417 42.7214L32.3884 43.4011L33.345 45.3241C33.4282 45.4919 33.2512 45.6699 33.0848 45.5857L31.1719 44.6241L30.4958 46.6634C30.4368 46.8414 30.1867 46.8414 30.1277 46.6634L29.4516 44.6241L27.5386 45.5857C27.3717 45.6693 27.1947 45.4914 27.2784 45.3241L28.235 43.4011L26.2064 42.7214C26.0294 42.6621 26.0294 42.4107 26.2064 42.3514L28.235 41.6717L27.2784 39.7486C27.1952 39.5809 27.3723 39.4029 27.5386 39.4871L29.4516 40.4487L30.1277 38.4094C30.1867 38.2314 30.4368 38.2314 30.4958 38.4094L31.1719 40.4487L33.0848 39.4871C33.2517 39.4034 33.4287 39.5814 33.345 39.7486L32.3884 41.6717L34.417 42.3514C34.5941 42.4107 34.5941 42.6621 34.417 42.7214Z" fill="white"/>
<path d="M32.3247 131.649C20.5476 131.649 11 122.102 11 110.325C11 98.5475 20.5476 89 32.3247 89C44.1018 89 53.6493 98.5475 53.6493 110.325C53.6493 122.102 44.1018 131.649 32.3247 131.649Z" fill="#B05433" stroke="#B05433" stroke-width="4" stroke-miterlimit="10"/>
<path d="M48.9713 118.149L47.0001 117.673C46.7727 117.618 46.5519 117.757 46.4956 117.99C46.4393 118.223 46.5725 118.448 46.7999 118.502L48.7712 118.978C48.9986 119.033 49.2194 118.895 49.2756 118.661C49.3319 118.428 49.1987 118.204 48.9713 118.149Z" fill="white"/>
<path d="M44.3587 117.036C44.1339 116.982 43.9152 117.121 43.8589 117.354C43.8026 117.587 43.9338 117.811 44.1585 117.865L45.4075 118.167C45.6323 118.221 45.8511 118.082 45.9073 117.849C45.9636 117.615 45.8325 117.392 45.6077 117.337L44.3587 117.036Z" fill="white"/>
<path d="M48.1261 116.191C48.1766 116.203 48.2018 116.209 48.2585 116.196L49.1282 116.134C49.3487 116.106 49.5244 115.932 49.5044 115.683C49.4781 115.46 49.3071 115.283 49.0614 115.305L48.1918 115.366C47.9712 115.394 47.7955 115.569 47.8156 115.818C47.8288 115.984 47.9747 116.154 48.1261 116.191Z" fill="white"/>
<path d="M44.2 116.43C44.2508 116.442 44.2761 116.448 44.333 116.435L46.9774 116.273C47.1987 116.246 47.3743 116.075 47.353 115.83C47.3256 115.61 47.153 115.435 46.9064 115.455L44.262 115.618C44.0407 115.644 43.865 115.815 43.8864 116.061C43.8751 116.218 44.0224 116.387 44.2 116.43Z" fill="white"/>
<path d="M48.0426 120.87L47.5115 120.555C47.3301 120.432 47.0754 120.503 46.9521 120.686C46.8289 120.869 46.8991 121.125 47.0805 121.248L47.6116 121.562C47.6616 121.574 47.6804 121.605 47.7303 121.617C47.905 121.659 48.0788 121.595 48.171 121.432C48.3001 121.224 48.2301 120.968 48.0426 120.87Z" fill="white"/>
<path d="M46.3272 119.833L43.8631 118.385C43.6788 118.26 43.4205 118.331 43.2959 118.514C43.1713 118.698 43.2432 118.955 43.4276 119.079L45.8915 120.528C45.9422 120.54 45.9613 120.571 46.012 120.583C46.1894 120.626 46.3656 120.562 46.4587 120.398C46.5895 120.189 46.5176 119.932 46.3272 119.833Z" fill="white"/>
<path d="M46.6315 110.738L43.6384 106.248C43.5095 99.4729 37.9589 94 31.1532 94C24.2681 94 18.666 99.6022 18.666 106.488C18.666 110.322 20.3675 113.853 23.3489 116.237V126H37.3975V120.408C38.4618 120.493 39.5094 120.537 40.5192 120.537C40.815 120.537 41.0849 120.37 41.2177 120.105C41.5328 119.475 41.818 118.783 42.073 118.033C42.2198 117.601 40.3926 116.873 40.5192 116.402C40.5938 116.125 42.6289 116.116 42.6965 115.825C42.9715 114.642 43.1879 113.349 43.3446 111.952H45.9826C46.2706 111.952 46.5353 111.793 46.6709 111.539C46.8068 111.286 46.7911 110.978 46.632 110.738L46.6315 110.738Z" fill="white"/>
<path d="M32.3247 209.649C20.5476 209.649 11 200.102 11 188.325C11 176.548 20.5476 167 32.3247 167C44.1018 167 53.6493 176.548 53.6493 188.325C53.6493 200.102 44.1018 209.649 32.3247 209.649Z" fill="#B05433" stroke="#B05433" stroke-width="4" stroke-miterlimit="10"/>
<path d="M46.6315 188.738L43.6384 184.248C43.5095 177.473 37.9589 172 31.1532 172C24.2681 172 18.666 177.602 18.666 184.488C18.666 188.322 20.3675 191.853 23.3489 194.237V204H37.3975V198.408C38.4618 198.493 39.5094 198.537 40.5192 198.537C40.815 198.537 41.0849 198.37 41.2177 198.105C41.5328 197.475 41.818 196.783 42.073 196.033C42.2198 195.601 40.3926 194.873 40.5192 194.402C40.5938 194.125 42.6289 194.116 42.6965 193.825C42.9715 192.642 43.1879 191.349 43.3446 189.952H45.9826C46.2706 189.952 46.5353 189.793 46.6709 189.539C46.8068 189.286 46.7911 188.978 46.632 188.738L46.6315 188.738Z" fill="white"/>
<path d="M43.8051 195.682C44.4072 195.682 44.4072 194.779 43.8051 194.779C43.203 194.798 43.203 195.682 43.8051 195.682Z" fill="white"/>
<path d="M45.309 194.127C45.9111 194.127 45.9111 193.173 45.309 193.173C44.7069 193.173 44.7069 194.127 45.309 194.127Z" fill="white"/>
<path d="M47.5105 193.023C48.1225 193.023 48.1225 192.069 47.5105 192.069C46.9184 192.069 46.9184 193.023 47.5105 193.023Z" fill="white"/>
<path d="M45.0553 197.187C45.6623 197.187 45.6623 196.284 45.0553 196.284C44.4679 196.284 44.4484 197.187 45.0553 197.187Z" fill="white"/>
<path d="M46.9125 197.589C47.5146 197.589 47.5146 196.635 46.9125 196.635C46.3104 196.635 46.3104 197.589 46.9125 197.589Z" fill="white"/>
<path d="M47.7663 196.083C48.3732 196.083 48.3732 195.18 47.7663 195.18C47.1788 195.18 47.1593 196.083 47.7663 196.083Z" fill="white"/>
<path d="M46.0104 195.632C46.6174 195.632 46.6174 194.678 46.0104 194.678C45.4231 194.698 45.4034 195.632 46.0104 195.632Z" fill="white"/>
<path d="M47.2172 194.478C47.8193 194.478 47.8193 193.524 47.2172 193.524C46.6151 193.524 46.6151 194.478 47.2172 194.478Z" fill="white"/>
<path d="M32.3247 287.649C20.5476 287.649 11 278.102 11 266.325C11 254.548 20.5476 245 32.3247 245C44.1018 245 53.6493 254.548 53.6493 266.325C53.6493 278.102 44.1018 287.649 32.3247 287.649Z" fill="#B05433" stroke="#B05433" stroke-width="4" stroke-miterlimit="10"/>
<path fill-rule="evenodd" clip-rule="evenodd" d="M46.6315 266.738L43.6384 262.248C43.5095 255.473 37.9589 250 31.1532 250C24.2681 250 18.666 255.602 18.666 262.488C18.666 266.322 20.3675 269.853 23.3489 272.237V282H37.3975V276.408C38.4618 276.493 39.5094 276.537 40.5192 276.537C40.815 276.537 41.0849 276.37 41.2177 276.105C42.2564 274.027 42.9706 271.287 43.3446 267.952H45.9826C46.2706 267.952 46.5353 267.793 46.6709 267.539C46.8068 267.286 46.7911 266.978 46.632 266.738L46.6315 266.738ZM27.3032 269.506C29.3427 269.9 31.1084 268.354 31.1084 266.384C31.1084 265.353 30.5909 264.414 29.7994 263.838V256.897C29.7994 255.866 28.9775 255.017 27.912 255.017C26.877 255.017 26.0246 255.866 26.0246 256.897V263.838C25.0809 264.535 24.533 265.717 24.8069 267.051C25.0506 268.263 26.0551 269.264 27.3032 269.506L27.3032 269.506ZM26.4204 264.414L26.6943 264.202V256.927C26.6943 256.26 27.2423 255.745 27.8815 255.745C28.5513 255.745 29.0992 256.29 29.0992 256.927V264.202L29.3731 264.414C30.0124 264.868 30.3777 265.626 30.3777 266.414C30.3777 267.081 30.1038 267.718 29.6471 268.172C29.16 268.627 28.5513 268.9 27.8815 268.9C26.6334 268.9 25.6592 268.021 25.4462 266.93C25.294 265.929 25.6593 264.959 26.4204 264.414ZM29.1872 267.646C28.8518 267.981 28.3945 268.163 27.9066 268.163L27.9066 268.163C26.9918 268.163 26.2905 267.525 26.138 266.735C25.8927 265.538 26.7127 264.989 27.1541 264.693C27.2615 264.621 27.3464 264.565 27.3882 264.517V259.382H28.3945L28.3944 264.517C28.4458 264.562 28.5238 264.613 28.6168 264.674C29.0206 264.937 29.7056 265.382 29.7056 266.37C29.7056 266.856 29.5227 267.312 29.1872 267.646Z" fill="white"/>
</svg>
