<svg width="64" height="64" viewBox="0 0 64 64" fill="none" xmlns="http://www.w3.org/2000/svg">
<path d="M32.3866 54.7733C44.7504 54.7733 54.7733 44.7504 54.7733 32.3866C54.7733 20.0228 44.7504 10 32.3866 10C20.0228 10 10 20.0228 10 32.3866C10 44.7504 20.0228 54.7733 32.3866 54.7733Z" fill="white" stroke="#2A2A2A"/>
<path d="M34.8809 14.6775H36.3209V18.2396H34.8809V14.6775Z" fill="white"/>
<path d="M32.3247 53.649C20.5476 53.649 11 44.1016 11 32.3249C11 20.5475 20.5476 11 32.3247 11C44.1018 11 53.6493 20.5475 53.6493 32.3249C53.6493 44.1016 44.1018 53.649 32.3247 53.649Z" stroke="#F23A4B" stroke-width="4" stroke-miterlimit="10"/>
<path d="M29.2878 40.0342C29.2881 39.832 29.4518 39.668 29.654 39.6678H42.4374C42.6396 39.668 42.8034 39.8319 42.8036 40.0342V40.077V40.0768C42.8005 40.2072 42.7287 40.3264 42.6147 40.3898C42.5847 40.4086 42.5522 40.4231 42.5183 40.4332C42.2304 40.5332 41.9652 40.6898 41.7388 40.8937C41.4773 41.1535 41.1239 41.2993 40.7553 41.2993C40.3867 41.2993 40.0331 41.1535 39.7716 40.8937C39.3998 40.5446 38.9088 40.3504 38.3988 40.3504C37.8888 40.3504 37.3978 40.5446 37.026 40.8937C36.7649 41.1535 36.4117 41.2995 36.0434 41.2995C35.6752 41.2995 35.3218 41.1535 35.061 40.8937C34.6894 40.5446 34.1989 40.3506 33.6893 40.3506C33.1795 40.3506 32.689 40.5446 32.3174 40.8937C32.0563 41.1539 31.7027 41.3001 31.3339 41.3001C30.9651 41.3001 30.6115 41.1539 30.3504 40.8937C30.1239 40.6902 29.8592 40.5338 29.5718 40.4341C29.5357 40.4231 29.5013 40.4071 29.4697 40.3863C29.3581 40.3238 29.2887 40.2061 29.288 40.0781L29.2878 40.0342ZM25.0181 44.1779V44.6059C25.0185 44.9345 25.2847 45.2009 25.6135 45.2012H28.6671C28.3995 44.9122 28.2096 44.5601 28.1149 44.1779L25.0181 44.1779ZM42.2826 43.1628H29.1188C28.8679 43.1628 28.6644 43.3664 28.6644 43.6173C28.6648 44.0723 28.8458 44.5084 29.1677 44.8302C29.4893 45.1518 29.9256 45.3329 30.3806 45.3333H41.71C42.165 45.3329 42.6013 45.1518 42.9229 44.8302C43.2447 44.5084 43.4258 44.0723 43.4262 43.6173C43.426 43.3664 43.2227 43.163 42.9718 43.1628H42.2826ZM28.9859 39.3129C28.8075 39.1284 28.6974 38.8887 28.6736 38.6333C28.6498 38.3779 28.7136 38.122 28.8546 37.9077C28.615 37.8078 28.4101 37.639 28.2659 37.423C28.1218 37.2067 28.0448 36.953 28.0444 36.6932C28.0463 35.1402 28.664 33.6515 29.762 32.5534C30.8601 31.4555 32.349 30.8378 33.9018 30.836H36.9305L36.9984 29.8772H23.0141L23.2366 33.0132L23.688 39.3531L28.9432 39.3533C28.9569 39.3391 28.9716 39.3265 28.9858 39.3131L28.9859 39.3129ZM28.862 42.5782H28.8617C28.7458 42.1653 28.6809 41.7396 28.6686 41.311C28.6712 41.0802 28.7445 40.8555 28.8786 40.6675C28.7445 40.4997 28.6705 40.2918 28.6686 40.0768V40.0342C28.6686 40.0134 28.6736 39.994 28.6749 39.9721H23.7313L23.9353 42.8367V42.8364C23.9513 43.0333 24.0398 43.2169 24.1834 43.3523C24.3277 43.4829 24.5158 43.5547 24.7105 43.5535H28.0533C28.0669 43.3261 28.1525 43.1092 28.2977 42.934C28.443 42.7586 28.6403 42.634 28.8609 42.5782L28.862 42.5782ZM34.9953 19.6449H34.9951C34.9945 19.3854 34.8909 19.1364 34.707 18.953C34.5232 18.7696 34.274 18.6666 34.0145 18.6666H25.9963C25.7367 18.6668 25.4876 18.7702 25.3039 18.9539C25.1203 19.1375 25.0169 19.3864 25.0165 19.6462V20.4015H34.9942L34.9953 19.6449ZM37.4954 22.9282H22.5188L22.9696 29.257H37.0431L37.4954 22.9282ZM38.6738 22.2739L38.6736 22.2742C38.6839 22.2545 38.6809 22.2305 38.666 22.214L38.1304 21.5628H38.1307C37.8478 21.2178 37.4247 21.0184 36.9787 21.0192H23.0342C22.5882 21.0186 22.1654 21.2182 21.8822 21.5628L21.3471 22.214C21.333 22.2309 21.33 22.2545 21.3393 22.2744C21.3486 22.2943 21.3687 22.307 21.3908 22.307H38.6204C38.6429 22.3081 38.6635 22.2949 38.6719 22.2742L38.6738 22.2739ZM43.4287 36.6924L43.4285 36.6926C43.4281 37.077 43.1166 37.3884 42.7325 37.3889H29.3605C28.9762 37.3884 28.6647 37.077 28.6645 36.6926C28.666 35.3043 29.2182 33.973 30.2002 32.9912C31.1819 32.0095 32.5132 31.4573 33.9016 31.4558H38.1893C39.5779 31.4573 40.909 32.0097 41.8907 32.9914C42.8727 33.9732 43.4249 35.3044 43.4264 36.6931L43.4287 36.6924ZM34.663 32.2C34.5419 32.0789 34.3455 32.0789 34.2244 32.2L33.7196 32.7044H33.7198C33.6599 32.7622 33.6257 32.8416 33.625 32.9248C33.6244 33.0079 33.657 33.0879 33.7159 33.1467C33.7747 33.2056 33.8545 33.2382 33.9378 33.2376C34.0208 33.2369 34.1004 33.2028 34.1582 33.1429L34.663 32.6385C34.7839 32.5173 34.7839 32.3209 34.663 32.2ZM36.5173 33.6985C36.3961 33.5776 36.1997 33.5776 36.0786 33.6985L35.5736 34.2033C35.5137 34.2611 35.4797 34.3404 35.4788 34.4237C35.4782 34.5068 35.5109 34.5868 35.5697 34.6456C35.6285 34.7044 35.7085 34.7371 35.7916 34.7365C35.8749 34.7358 35.9543 34.7016 36.012 34.6417L36.5168 34.1369C36.6379 34.016 36.6382 33.8196 36.5173 33.6985ZM38.3711 32.2C38.2499 32.0789 38.0538 32.0789 37.9326 32.2L37.4282 32.7044H37.428C37.3683 32.7622 37.3342 32.8416 37.3335 32.9248C37.3326 33.0079 37.3655 33.0879 37.4244 33.1467C37.4832 33.2056 37.563 33.2382 37.6463 33.2376C37.7293 33.2369 37.8087 33.2028 37.8667 33.1429L38.3711 32.6385C38.4922 32.5173 38.4922 32.3209 38.3711 32.2ZM29.8064 39.0471H42.2835C42.5651 39.0404 42.7899 38.8101 42.7899 38.5283C42.7899 38.2467 42.5651 38.0163 42.2835 38.0094H29.8064C29.5248 38.0163 29.3 38.2467 29.3 38.5283C29.3 38.8101 29.5248 39.0404 29.8064 39.0471ZM29.4551 42.4031C29.5503 42.4939 29.677 42.5441 29.8085 42.5437H42.2829C42.4562 42.511 42.8035 41.7568 42.8035 41.311C42.8035 41.2079 42.7726 41.1071 42.7144 41.0218L42.701 41.026L42.7012 41.0257C42.4888 41.1036 42.2942 41.2228 42.1283 41.3761C41.7565 41.7254 41.2655 41.9199 40.7552 41.9199C40.2452 41.9199 39.7542 41.7254 39.3824 41.3761C39.1209 41.1164 38.7673 40.9704 38.3987 40.9704C38.0301 40.9704 37.6765 41.1164 37.415 41.3761C37.0434 41.725 36.5529 41.9192 36.0433 41.9192C35.5335 41.9192 35.043 41.725 34.6714 41.3761C34.4106 41.1164 34.0573 40.9704 33.689 40.9704C33.3207 40.9704 32.9675 41.1164 32.7066 41.3761C32.3348 41.7257 31.8436 41.9203 31.3334 41.9203C30.8232 41.9203 30.332 41.7257 29.9602 41.3761C29.7949 41.2226 29.6007 41.1036 29.3887 41.0262L29.3771 41.0225V41.0223C29.3187 41.1075 29.2875 41.2085 29.2879 41.3117C29.2979 41.6811 29.3539 42.0477 29.4551 42.4031Z" fill="#2A2A2A"/>
<path d="M47.9246 47.7009L16.9941 16.7709" stroke="#F23A4B" stroke-width="4" stroke-miterlimit="10"/>
</svg>
