<svg width="64" height="64" viewBox="0 0 64 64" fill="none" xmlns="http://www.w3.org/2000/svg">
<path d="M32.3866 54.7733C44.7504 54.7733 54.7733 44.7504 54.7733 32.3866C54.7733 20.0228 44.7504 10 32.3866 10C20.0228 10 10 20.0228 10 32.3866C10 44.7504 20.0228 54.7733 32.3866 54.7733Z" fill="white" stroke="#2A2A2A"/>
<path d="M34.8809 14.6775H36.3209V18.2396H34.8809V14.6775Z" fill="white"/>
<path d="M32.3247 53.649C20.5476 53.649 11 44.1016 11 32.3249C11 20.5475 20.5476 11 32.3247 11C44.1018 11 53.6493 20.5475 53.6493 32.3249C53.6493 44.1016 44.1018 53.649 32.3247 53.649Z" stroke="#F23A4B" stroke-width="4" stroke-miterlimit="10"/>
<path fill-rule="evenodd" clip-rule="evenodd" d="M34.0887 31.6224V39.8436H43.9414V31.6224H34.0887ZM34.827 24.7306H43.2032V26.8661H34.827V24.7306ZM38.1398 32.8313H39.8901V34.8674H41.9459V36.5997H39.8901V38.6352H38.1398V36.5997H36.0841V34.8674H38.1398V32.8313ZM29.5111 39.2173C30.4105 39.2173 31.1391 39.9384 31.1391 40.8289C31.1391 41.7195 30.4102 42.4411 29.5111 42.4411C28.6121 42.4411 27.8828 41.7194 27.8828 40.8289C27.8828 39.9384 28.6119 39.2173 29.5111 39.2173ZM29.5111 33.7752C30.4105 33.7752 31.1391 34.4968 31.1391 35.3879C31.1391 36.2779 30.4102 37.0001 29.5111 37.0001C28.6121 37.0001 27.8828 36.2778 27.8828 35.3879C27.8828 34.497 28.6119 33.7752 29.5111 33.7752ZM29.5111 28.3345C30.4105 28.3345 31.1391 29.0568 31.1391 29.9467C31.1391 30.8372 30.4102 31.5589 29.5111 31.5589C28.6121 31.5589 27.8828 30.8372 27.8828 29.9467C27.8828 29.0567 28.6119 28.3345 29.5111 28.3345ZM29.5111 22.8939C30.4105 22.8939 31.1391 23.6155 31.1391 24.506C31.1391 25.3965 30.4102 26.1177 29.5111 26.1177C28.6121 26.1177 27.8828 25.3966 27.8828 24.506C27.8828 23.6155 28.6119 22.8939 29.5111 22.8939ZM24.0853 39.2168C24.9847 39.2168 25.7133 39.9379 25.7133 40.8284C25.7133 41.719 24.9844 42.4406 24.0853 42.4406C23.1862 42.4406 22.4574 41.7189 22.4574 40.8284C22.4574 39.9379 23.1858 39.2168 24.0853 39.2168ZM24.0853 33.7747C24.9847 33.7747 25.7133 34.4964 25.7133 35.3874C25.7133 36.2774 24.9844 36.9996 24.0853 36.9996C23.1862 36.9996 22.4574 36.2774 22.4574 35.3874C22.457 34.4965 23.1858 33.7747 24.0853 33.7747ZM24.0853 28.334C24.9847 28.334 25.7133 29.0563 25.7133 29.9462C25.7133 30.8367 24.9844 31.5584 24.0853 31.5584C23.1862 31.5584 22.4574 30.8367 22.4574 29.9462C22.457 29.0562 23.1858 28.334 24.0853 28.334ZM24.0853 22.8934C24.9847 22.8934 25.7133 23.615 25.7133 24.5056C25.7133 25.3961 24.9844 26.1172 24.0853 26.1172C23.1862 26.1172 22.4574 25.3961 22.4574 24.5056C22.4574 23.615 23.1858 22.8934 24.0853 22.8934ZM32.8599 43.7554C32.6154 43.9094 32.3249 43.9991 32.0132 43.9999H21.5825C20.7091 43.9978 20.0015 43.2972 20 42.4323V22.9004C20.0017 22.0361 20.7093 21.3357 21.5825 21.3334H32.0132C32.8865 21.3355 33.5939 22.036 33.5959 22.9004L33.5686 28.8142C32.8545 29.2611 32.4384 30.0077 32.4384 30.8522V42.4002C32.4387 42.9019 32.5941 43.3686 32.8599 43.7554ZM42.1752 27.6829C42.2245 28.1998 42.5096 28.6399 42.9752 28.9057L43.9579 29.4676C44.4715 29.7607 44.7654 30.265 44.7654 30.8526V42.4006C44.7654 43.2807 44.0398 44 43.1504 44L34.8783 43.9998C33.9884 43.9998 33.2632 43.2807 33.2632 42.4004V30.8524C33.2632 30.2646 33.5569 29.7603 34.0707 29.4674L35.0532 28.9055C35.5189 28.6394 35.8042 28.1996 35.8533 27.6827L42.1752 27.6829Z" fill="#2A2A2A"/>
<path d="M47.9246 47.7009L16.9941 16.7709" stroke="#F23A4B" stroke-width="4" stroke-miterlimit="10"/>
</svg>
