<svg width="64" height="64" viewBox="0 0 64 64" fill="none" xmlns="http://www.w3.org/2000/svg">
<path d="M32.3866 54.7733C44.7504 54.7733 54.7733 44.7504 54.7733 32.3866C54.7733 20.0228 44.7504 10 32.3866 10C20.0228 10 10 20.0228 10 32.3866C10 44.7504 20.0228 54.7733 32.3866 54.7733Z" fill="white" stroke="#2A2A2A"/>
<path d="M34.8809 14.6775H36.3209V18.2396H34.8809V14.6775Z" fill="white"/>
<path d="M32.3247 53.649C20.5476 53.649 11 44.1016 11 32.3249C11 20.5475 20.5476 11 32.3247 11C44.1018 11 53.6493 20.5475 53.6493 32.3249C53.6493 44.1016 44.1018 53.649 32.3247 53.649Z" stroke="#F23A4B" stroke-width="4" stroke-miterlimit="10"/>
<path d="M40.2432 35.0536L37.1488 24.0776C37.0272 23.6462 36.6438 23.3636 36.2194 23.3433L28.7626 23.3396C28.4626 23.446 28.2258 23.7478 28.1328 24.0776L25.0384 35.0536C24.8862 35.5933 25.2005 36.1544 25.7402 36.3066C26.2799 36.4588 26.841 36.1444 26.9932 35.6048L28.7721 29.2956V47.3781C28.7721 48.1261 29.3786 48.7322 30.1262 48.7322C30.8743 48.7322 31.4804 48.1257 31.4804 47.3781L31.48 37.0214H33.5112V47.3781C33.5112 48.1261 34.1178 48.7322 34.8654 48.7322C35.6134 48.7322 36.2195 48.1257 36.2195 47.3781V28.2658L38.2885 35.6041C38.4407 36.1438 39.0018 36.4581 39.5415 36.3059C40.0811 36.1537 40.3955 35.5926 40.2429 35.053L40.2432 35.0536Z" fill="#2A2A2A"/>
<path d="M47.9246 47.7009L16.9941 16.7709" stroke="#F23A4B" stroke-width="4" stroke-miterlimit="10"/>
<path d="M35.5423 19.0464C35.5423 20.7289 34.1785 22.0931 32.496 22.0931C30.8134 22.0931 29.4492 20.7289 29.4492 19.0464C29.4492 17.3638 30.8134 16 32.496 16C34.1785 16 35.5423 17.3638 35.5423 19.0464Z" fill="#2A2A2A"/>
</svg>
