<svg width="64" height="64" viewBox="0 0 64 64" fill="none" xmlns="http://www.w3.org/2000/svg">
<path d="M32.3866 54.7733C44.7504 54.7733 54.7733 44.7504 54.7733 32.3866C54.7733 20.0228 44.7504 10 32.3866 10C20.0228 10 10 20.0228 10 32.3866C10 44.7504 20.0228 54.7733 32.3866 54.7733Z" fill="white" stroke="#2A2A2A"/>
<path d="M34.8809 14.6775H36.3209V18.2396H34.8809V14.6775Z" fill="white"/>
<path d="M32.3247 53.649C20.5476 53.649 11 44.1016 11 32.3249C11 20.5475 20.5476 11 32.3247 11C44.1018 11 53.6493 20.5475 53.6493 32.3249C53.6493 44.1016 44.1018 53.649 32.3247 53.649Z" stroke="#F23A4B" stroke-width="4" stroke-miterlimit="10"/>
<path d="M24.303 22.9638C24.303 22.7653 24.2229 22.5748 24.0809 22.4363C23.9388 22.2974 23.7469 22.2215 23.5483 22.2262H21.7619C21.3563 22.2289 21.0293 22.5586 21.0293 22.9638V23.6295H24.3026L24.303 22.9638Z" fill="#2A2A2A"/>
<path d="M32.3915 27.877C35.3127 28.1661 37.4466 30.7684 37.1575 33.69C36.8688 36.6111 34.2661 38.7448 31.345 38.456C28.4238 38.1669 26.2899 35.5646 26.579 32.643C26.8681 29.7219 29.4704 27.5882 32.3915 27.877Z" fill="#2A2A2A"/>
<path d="M43.2552 24.329H39.0833C38.5689 24.3271 38.0678 24.1661 37.6487 23.8681C37.2291 23.5701 36.9126 23.1498 36.7419 22.6645C36.5736 22.1788 36.2585 21.7578 35.8398 21.4594C35.421 21.161 34.9202 21.0008 34.4062 21H29.3128C28.7988 21.0008 28.2977 21.161 27.8793 21.4594C27.4605 21.7578 27.1451 22.1788 26.9771 22.6645C26.8064 23.1498 26.4895 23.5701 26.0704 23.8681C25.6512 24.1661 25.15 24.3271 24.6357 24.329H20.4858C19.8263 24.329 19.1943 24.591 18.728 25.057C18.262 25.523 18 26.1554 18 26.8144V39.5198C18 40.1785 18.262 40.8101 18.7284 41.2754C19.1947 41.7405 19.8267 42.0014 20.4858 41.9998H43.2335H43.2331C43.8957 42.0072 44.5335 41.7495 45.0049 41.2835C45.4759 40.8175 45.741 40.1825 45.741 39.5198V26.8144C45.741 26.1553 45.479 25.523 45.013 25.057C44.5466 24.591 43.9147 24.329 43.2552 24.329ZM22.6664 28.5347C22.2039 28.5347 21.7871 28.256 21.6102 27.8288C21.4334 27.4019 21.5313 26.9104 21.8579 26.5834C22.185 26.2564 22.6765 26.1588 23.1037 26.3357C23.5306 26.5126 23.8092 26.9294 23.8092 27.3915C23.8092 27.6949 23.6889 27.9855 23.4745 28.1999C23.2601 28.414 22.9694 28.5347 22.6664 28.5347ZM31.8707 40.1969C30.0057 40.1969 28.2173 39.4557 26.8987 38.1364C25.5801 36.8175 24.8402 35.0287 24.8409 33.1637C24.8421 31.2987 25.584 29.5103 26.9036 28.1925C28.2237 26.8747 30.0129 26.1355 31.8779 26.1375C33.7429 26.1394 35.5309 26.8825 36.8479 28.203C38.165 29.5235 38.903 31.3135 38.9003 33.1784C38.8972 35.0408 38.1553 36.826 36.8375 38.1419C35.5193 39.4578 33.7329 40.197 31.8706 40.197L31.8707 40.1969Z" fill="#2A2A2A"/>
<path d="M47.9246 47.7009L16.9941 16.7709" stroke="#F23A4B" stroke-width="4" stroke-miterlimit="10"/>
</svg>
