<svg width="64" height="64" viewBox="0 0 64 64" fill="none" xmlns="http://www.w3.org/2000/svg">
<path d="M32.3866 54.7733C44.7504 54.7733 54.7733 44.7504 54.7733 32.3866C54.7733 20.0228 44.7504 10 32.3866 10C20.0228 10 10 20.0228 10 32.3866C10 44.7504 20.0228 54.7733 32.3866 54.7733Z" fill="white" stroke="#2A2A2A"/>
<path d="M34.8809 14.6774H36.3209V18.2395H34.8809V14.6774Z" fill="white"/>
<path d="M32.3247 53.649C20.5476 53.649 11 44.1016 11 32.3249C11 20.5475 20.5476 11 32.3247 11C44.1018 11 53.6493 20.5475 53.6493 32.3249C53.6493 44.1016 44.1018 53.649 32.3247 53.649Z" stroke="#F23A4B" stroke-width="4" stroke-miterlimit="10"/>
<path d="M38.2687 18H25.7013C24.2039 18 23 19.1715 23 20.6285V43.3715C23 44.8286 24.2039 46 25.7013 46H38.2985C39.7959 46 40.9998 44.8285 40.9998 43.3715L41 20.6285C40.9704 19.1712 39.7665 18 38.2691 18H38.2687ZM28.4026 19.3142H35.5966V20.1999H28.4026V19.3142ZM31.9849 44.2572C30.9865 44.2572 30.1938 43.4858 30.1938 42.5144C30.1938 41.5429 30.9865 40.7716 31.9849 40.7716C32.9832 40.7716 33.776 41.5429 33.776 42.5144C33.776 43.486 32.9832 44.2572 31.9849 44.2572ZM39.1789 39.0001H24.7908V21.5141H39.1789V39.0001Z" fill="black"/>
<path d="M47.9246 47.701L16.9941 16.7709" stroke="#F23A4B" stroke-width="4" stroke-miterlimit="10"/>
</svg>
