<svg width="64" height="64" viewBox="0 0 64 64" fill="none" xmlns="http://www.w3.org/2000/svg">
<path d="M32.3866 54.7733C44.7504 54.7733 54.7733 44.7504 54.7733 32.3866C54.7733 20.0228 44.7504 10 32.3866 10C20.0228 10 10 20.0228 10 32.3866C10 44.7504 20.0228 54.7733 32.3866 54.7733Z" fill="white" stroke="#2A2A2A"/>
<path d="M34.8809 14.6775H36.3209V18.2396H34.8809V14.6775Z" fill="white"/>
<path d="M32.3247 53.649C20.5476 53.649 11 44.1016 11 32.3249C11 20.5475 20.5476 11 32.3247 11C44.1018 11 53.6493 20.5475 53.6493 32.3249C53.6493 44.1016 44.1018 53.649 32.3247 53.649Z" stroke="#F23A4B" stroke-width="4" stroke-miterlimit="10"/>
<path d="M33.7774 26.2224C33.7774 21.7112 29.8752 21.3334 26.2217 21.3334C22.5683 21.3334 18.666 21.7112 18.666 26.2224C18.666 30.1024 21.6883 36.0135 25.7773 36.4224V36.6446L22.8704 38.5157C22.8704 38.5157 22.8482 38.5336 22.8349 38.5423C22.8171 38.5556 22.7994 38.5689 22.7861 38.5867C22.7728 38.6 22.7639 38.6133 22.755 38.6268C22.7417 38.6447 22.7284 38.6623 22.7194 38.6802C22.7105 38.6935 22.7061 38.7113 22.7016 38.729C22.6927 38.7469 22.6837 38.7645 22.6794 38.7867C22.675 38.8046 22.675 38.8223 22.6704 38.8401C22.6704 38.858 22.6661 38.8713 22.6661 38.8889V42.889C22.6661 42.889 22.6704 42.9201 22.6704 42.9378C22.6748 42.9557 22.6748 42.9733 22.6794 42.9912C22.6794 43.0134 22.6927 43.0313 22.7016 43.0489C22.7059 43.0668 22.7105 43.0844 22.7194 43.0977C22.7284 43.1156 22.7417 43.1332 22.755 43.1511C22.7639 43.1644 22.7728 43.1777 22.7861 43.1912C22.7994 43.209 22.8173 43.2223 22.8349 43.2356C22.8482 43.2446 22.8571 43.2535 22.8704 43.2622L25.9816 45.2623C25.9816 45.2623 25.9905 45.2666 25.9949 45.2666L26.0082 45.2799C26.0082 45.2799 26.0483 45.2932 26.0659 45.3021C26.0792 45.3065 26.0925 45.3154 26.106 45.3154C26.1415 45.3287 26.1816 45.3333 26.2215 45.3333C26.2616 45.3333 26.3014 45.3289 26.337 45.3154C26.3503 45.3111 26.3592 45.3065 26.3725 45.3021C26.3947 45.2978 26.4169 45.2888 26.4348 45.2799L26.4481 45.2666C26.4481 45.2666 26.457 45.2666 26.4614 45.2623L29.5725 43.2622C29.5725 43.2622 29.5948 43.2444 29.6081 43.2356C29.6259 43.2223 29.6436 43.209 29.6569 43.1912C29.6702 43.1779 29.6791 43.1646 29.688 43.1511C29.7013 43.1332 29.7146 43.1156 29.7235 43.0977C29.7325 43.0844 29.7368 43.0666 29.7414 43.0489C29.7503 43.0311 29.7592 43.0134 29.7636 42.9912C29.768 42.9733 29.768 42.9557 29.7725 42.9378C29.7725 42.9199 29.7769 42.9067 29.7769 42.889V38.8889C29.7769 38.8889 29.7725 38.8578 29.7725 38.8401C29.7682 38.8223 29.7682 38.8046 29.7636 38.7867C29.7636 38.7645 29.7503 38.7467 29.7414 38.729C29.737 38.7111 29.7325 38.6935 29.7235 38.6802C29.7146 38.6623 29.7013 38.6447 29.688 38.6268C29.6791 38.6135 29.6702 38.6002 29.6569 38.5867C29.6436 38.5689 29.6257 38.5556 29.6081 38.5423C29.5948 38.5334 29.5858 38.5244 29.5725 38.5157L26.6657 36.6446V36.4224C30.7547 36.018 33.777 30.1066 33.777 26.2224H33.7774ZM23.555 39.6138L24.4439 40.0672V41.7117L23.555 42.1651V39.6138ZM25.7773 44.0762L23.9994 42.934L24.1461 42.8584L24.8528 42.4984L25.7772 43.1472L25.7773 44.0762ZM25.7773 38.6316L24.8528 39.2804L24.1461 38.9204L23.9995 38.8448L25.7773 37.7026L25.7773 38.6316ZM19.5549 26.2225C19.5549 22.8758 21.9994 22.2224 26.2217 22.2224C30.444 22.2224 32.8885 22.8758 32.8885 26.2225C32.8885 29.7602 30.1373 35.1024 26.6616 35.525C26.6437 35.2938 26.4572 35.1117 26.2215 35.1117C25.986 35.1117 25.7993 35.2984 25.7814 35.525C22.3057 35.1027 19.5545 29.7603 19.5545 26.2225H19.5549ZM26.6662 44.0762V43.1473L27.5906 42.4985L28.2973 42.8584L28.444 42.934L26.6662 44.0762ZM28.8884 42.1651L27.9995 41.7117V40.0672L28.8884 39.6139V42.1651ZM28.444 38.845L28.2973 38.9206L27.5906 39.2805L26.6662 38.6317V37.7027L28.444 38.845Z" fill="#2A2A2A"/>
<path d="M39.9991 21.7778C40.7325 21.7778 41.3325 21.1778 41.3325 20.4444V20C41.3325 19.7555 41.5325 19.5555 41.7769 19.5555C42.0214 19.5555 42.2214 19.7555 42.2214 20V21.4577C41.9547 21.6133 41.7769 21.8933 41.7769 22.2222C41.7769 22.5512 41.9547 22.8355 42.2214 22.9868V23.6491C41.8347 24.1469 41.3325 24.8802 41.3325 25.3336C41.3325 26.0713 41.9282 26.667 42.6659 26.667C43.4035 26.667 43.9992 26.0713 43.9992 25.3336C43.9992 24.8802 43.497 24.1515 43.1103 23.6491V22.9868C43.377 22.8312 43.5548 22.5512 43.5548 22.2222C43.5548 21.8933 43.377 21.609 43.1103 21.4577V20C43.1103 19.2666 42.5103 18.6666 41.7769 18.6666C41.0436 18.6666 40.4436 19.2666 40.4436 20V20.4444C40.4436 20.6889 40.2436 20.8889 39.9991 20.8889C39.7547 20.8889 39.5547 21.0889 39.5547 21.3333C39.5547 21.5778 39.7547 21.7778 39.9991 21.7778Z" fill="#2A2A2A"/>
<path d="M35.5558 24.0002C36.2892 24.0002 36.8891 23.4002 36.8891 22.6668V22.2224C36.8891 21.9779 37.0891 21.7779 37.3336 21.7779C37.578 21.7779 37.778 21.9779 37.778 22.2224V23.6801C37.5114 23.8357 37.3336 24.1157 37.3336 24.4447C37.3336 24.7736 37.5114 25.058 37.778 25.2092V25.8715C37.3913 26.3693 36.8891 27.1026 36.8891 27.556C36.8891 28.2937 37.4848 28.8894 38.2225 28.8894C38.9602 28.8894 39.5559 28.2937 39.5559 27.556C39.5559 27.1026 39.0537 26.3739 38.6669 25.8715V25.2092C38.9336 25.0536 39.1114 24.7736 39.1114 24.4447C39.1114 24.1157 38.9336 23.8314 38.6669 23.6801V22.2224C38.6669 21.489 38.067 20.889 37.3336 20.889C36.6002 20.889 36.0002 21.489 36.0002 22.2224V22.6668C36.0002 22.9113 35.8002 23.1113 35.5558 23.1113C35.3113 23.1113 35.1113 23.3113 35.1113 23.5558C35.1113 23.8002 35.3113 24.0002 35.5558 24.0002Z" fill="#2A2A2A"/>
<path d="M40.5019 35.2266H40.4976C39.8976 35.151 39.2842 35.1111 38.6709 35.1111H38.662C38.0487 35.1111 37.4354 35.1512 36.8354 35.2266H36.831C35.3643 35.4133 34.1554 35.8 33.3155 36.3244C32.4754 36.8444 32 37.5022 32 38.2222V40C32 41.7735 34.8667 43.1112 38.6668 43.1112C42.4668 43.1112 45.3336 41.7735 45.3336 40V38.2222C45.3336 36.7777 43.4357 35.6 40.5023 35.2265L40.5019 35.2266ZM39.1108 36.0087C39.4086 36.022 39.7065 36.0353 39.9997 36.0621V36.9821C39.7065 36.9466 39.413 36.9198 39.1108 36.9065V36.0087ZM37.333 36.0621C37.6263 36.0355 37.9241 36.022 38.2219 36.0087V36.9065C37.9197 36.9198 37.6262 36.9466 37.333 36.9821V36.0621ZM33.6351 38.4532C33.5551 38.5331 33.4796 38.6087 33.4085 38.6933C33.3774 38.7333 33.3462 38.7732 33.3196 38.8133C33.2885 38.8488 33.2573 38.8889 33.2307 38.9244L33.2042 38.8978C33.173 38.8623 33.1418 38.8268 33.1153 38.7911L33.0752 38.7377C33.0486 38.7065 33.0307 38.671 33.0085 38.6355C32.9996 38.6133 32.9863 38.5954 32.9774 38.5732C32.9595 38.5377 32.9462 38.4976 32.9329 38.4577C32.924 38.4399 32.9196 38.4222 32.9107 38.4044C32.8974 38.3421 32.8885 38.2843 32.8885 38.2222C32.8885 37.4978 34.1286 36.5734 36.4441 36.1821V37.1244C36.2308 37.1688 36.0262 37.2222 35.8262 37.2843C35.7639 37.3022 35.7018 37.3244 35.6395 37.3421C35.5062 37.3865 35.3772 37.4309 35.2484 37.4798C35.1818 37.5063 35.1195 37.5331 35.0528 37.5597C34.9373 37.6085 34.8262 37.6619 34.7151 37.7153C34.6574 37.7464 34.5996 37.773 34.5462 37.8042C34.4218 37.8708 34.3062 37.9419 34.1907 38.0131C34.1641 38.0353 34.1284 38.0532 34.1018 38.0708C33.9641 38.1641 33.8395 38.2665 33.724 38.3687C33.6929 38.3952 33.6663 38.4264 33.6351 38.4532ZM35.1107 41.7776C34.8663 41.7776 34.6663 41.5776 34.6663 41.3332C34.6663 41.0887 34.8663 40.8887 35.1107 40.8887C35.3552 40.8887 35.5552 41.0887 35.5552 41.3332C35.5552 41.5776 35.3552 41.7776 35.1107 41.7776ZM39.293 42.4042C39.133 42.5687 38.9108 42.6665 38.6664 42.6665C38.1775 42.6665 37.7775 42.2665 37.7775 41.7776C37.7775 41.5332 37.8753 41.311 38.0398 41.151C38.1997 40.9865 38.4219 40.8887 38.6664 40.8887C38.9108 40.8887 39.133 40.9865 39.293 41.151C39.4575 41.311 39.5553 41.5332 39.5553 41.7776C39.5553 42.0221 39.4575 42.2443 39.293 42.4042ZM42.222 41.7776C41.9775 41.7776 41.7775 41.5776 41.7775 41.3332C41.7775 41.0887 41.9775 40.8887 42.222 40.8887C42.4664 40.8887 42.6664 41.0887 42.6664 41.3332C42.6664 41.5776 42.4664 41.7776 42.222 41.7776ZM43.3152 39.493C42.3998 39.9597 41.3908 40.2042 40.3729 40.3331C39.4929 40.4486 38.5862 40.4754 37.7018 40.4087C36.6129 40.3288 35.5151 40.1331 34.5018 39.7199C34.3061 39.6353 34.1283 39.551 33.9462 39.4488C33.9505 39.4445 33.9551 39.4445 33.9551 39.4399C34.0085 39.3554 34.0751 39.271 34.1507 39.1865C34.5686 38.7599 35.1152 38.4798 35.6752 38.271C36.0931 38.1198 36.524 38.0044 36.9685 37.9244C37.5018 37.8266 38.084 37.7778 38.6663 37.7778C39.2485 37.7778 39.8308 37.8266 40.3642 37.9244C41.0709 38.0577 41.7599 38.2621 42.3908 38.6C42.7686 38.809 43.142 39.0756 43.3775 39.4401C43.3775 39.4445 43.3819 39.4445 43.3865 39.449C43.3599 39.4623 43.3376 39.4802 43.3154 39.4935L43.3152 39.493ZM44.422 38.4041C44.422 38.4041 44.4087 38.4396 44.3998 38.4575C44.3865 38.4976 44.3732 38.5374 44.3553 38.573C44.3464 38.5952 44.3331 38.613 44.3242 38.6353C44.302 38.6708 44.2841 38.7019 44.2575 38.7374C44.2442 38.7553 44.2309 38.773 44.2174 38.7952C44.1908 38.8263 44.1641 38.8619 44.1329 38.893C44.124 38.9019 44.115 38.9152 44.1017 38.9242C44.0752 38.8886 44.044 38.8486 44.0129 38.813C43.9863 38.773 43.9551 38.7331 43.924 38.693C43.8529 38.6085 43.7773 38.5331 43.6974 38.4529C43.6662 38.4263 43.6396 38.3952 43.6085 38.3684C43.493 38.2662 43.3684 38.164 43.2307 38.0706C43.2041 38.0527 43.1684 38.035 43.1418 38.0128C43.0263 37.9418 42.9107 37.8706 42.7863 37.8039C42.7329 37.7727 42.6751 37.7462 42.6174 37.715C42.5063 37.6616 42.3952 37.6082 42.2797 37.5594C42.213 37.5329 42.1507 37.5061 42.0841 37.4795C41.9551 37.4307 41.8263 37.3862 41.693 37.3418C41.6307 37.3239 41.5686 37.3017 41.5063 37.284C41.3063 37.2217 41.1019 37.1686 40.8884 37.1241V36.1818C43.2039 36.5729 44.444 37.4973 44.444 38.2219C44.444 38.2842 44.4351 38.342 44.4218 38.4041L44.422 38.4041Z" fill="#2A2A2A"/>
<path d="M47.9246 47.7009L16.9941 16.7709" stroke="#F23A4B" stroke-width="4" stroke-miterlimit="10"/>
</svg>
