<svg width="64" height="64" viewBox="0 0 64 64" fill="none" xmlns="http://www.w3.org/2000/svg">
<path d="M32.3866 54.7733C44.7504 54.7733 54.7733 44.7504 54.7733 32.3866C54.7733 20.0228 44.7504 10 32.3866 10C20.0228 10 10 20.0228 10 32.3866C10 44.7504 20.0228 54.7733 32.3866 54.7733Z" fill="white" stroke="#2A2A2A"/>
<path d="M16.5312 32.9838H43.3984V37.2813H16.5312V32.9838Z" fill="#2A2A2A"/>
<path d="M34.9915 15.8223C32.441 15.8223 31.4004 17.8861 31.4004 19.4784C31.4004 21.2931 32.893 23.2472 35.7211 23.0812C34.7434 24.7416 35.6017 27.4402 37.9209 27.4402H41.7882C43.8519 27.4402 44.9231 28.5373 44.9231 30.2335V32.2052" stroke="#2A2A2A" stroke-miterlimit="10" stroke-linejoin="round"/>
<path d="M36.2285 17.224C38.8206 17.224 40.5407 19.0248 40.5407 21.2309C40.5407 22.0836 40.2204 23.1168 39.5709 24.0126H41.8574C45.1813 24.0126 47.1639 26.7819 47.1639 29.5574V32.2052M44.9213 32.9158V37.2645M47.1724 32.9158V37.2645" stroke="#2A2A2A" stroke-miterlimit="10" stroke-linejoin="round"/>
<path d="M34.8809 14.6775H36.3209V18.2396H34.8809V14.6775Z" fill="white"/>
<path d="M32.3247 53.649C20.5476 53.649 11 44.1016 11 32.3249C11 20.5475 20.5476 11 32.3247 11C44.1018 11 53.6493 20.5475 53.6493 32.3249C53.6493 44.1016 44.1018 53.649 32.3247 53.649Z" stroke="#F23A4B" stroke-width="4" stroke-miterlimit="10"/>
<path d="M47.9246 47.7009L16.9941 16.7709" stroke="#F23A4B" stroke-width="4" stroke-miterlimit="10"/>
</svg>
