<svg width="64" height="64" viewBox="0 0 64 64" fill="none" xmlns="http://www.w3.org/2000/svg">
<path d="M52.3238 39.8976L46.683 50.532C46.683 50.532 46.4056 50.9945 45.527 51.0406C44.6485 51.087 39.1467 51.087 39.1467 51.087L39.1928 54L34.0605 46.186L38.7303 38.1407L38.7765 40.6373H50.613C50.6133 40.6373 51.6767 40.5451 52.324 39.8978L52.3238 39.8976Z" fill="#007611"/>
<path d="M39.9785 29.1708L48.671 23.946L54.0345 32.4535C54.0345 32.4535 55.5603 35.4587 53.2024 37.8631C51.7226 39.6664 49.5499 39.7589 49.5499 39.7589L46.1747 39.7128L39.9785 29.1708Z" fill="#007611"/>
<path d="M28.1875 11H40.3477C40.3477 11 40.8102 11.0461 41.3649 11.7399C41.8735 12.4333 44.7865 17.4269 44.7865 17.4269L47.8843 15.7162L43.1681 24.085L33.4584 24.1775L35.9551 22.5591L30.0833 12.9419C30.0833 12.9419 29.4821 11.6009 28.1875 11Z" fill="#007611"/>
<path d="M14.5954 40.8686C15.1965 40.9147 31.1942 40.9147 31.1942 40.9147L31.2868 50.9942L19.7277 51.0868C19.7277 51.0868 19.3116 51.0407 18.8031 50.4395C18.3409 49.8383 12.4688 40.1288 12.4688 40.1288C12.4688 40.1288 13.9946 40.8225 14.5955 40.8686L14.5954 40.8686Z" fill="#007611"/>
<path d="M21.2078 12.8032C21.2078 12.8032 22.4563 9.79797 27.496 11.6473C29.0679 12.2946 29.9004 14.2364 29.9004 14.2364C29.9004 14.2364 30.409 15.0685 31.1024 16.2244L25.5076 26.3964L16.4453 21.5419L21.2078 12.8032Z" fill="#007611"/>
<path d="M21.8541 33.4245L18.2938 39.8975L14.6873 39.9436C14.6873 39.9436 9.04648 38.6951 9.97113 33.7941L12.699 28.4306L9 26.4426L19.2645 26.4429L24.3507 34.5343L21.8541 33.4245Z" fill="#007611"/>
</svg>
