<svg width="64" height="64" viewBox="0 0 64 64" fill="none" xmlns="http://www.w3.org/2000/svg">
<path d="M32.3247 53.649C20.5476 53.649 11 44.1016 11 32.3249C11 20.5475 20.5476 11 32.3247 11C44.1018 11 53.6493 20.5475 53.6493 32.3249C53.6493 44.1016 44.1018 53.649 32.3247 53.649Z" fill="#0063B8" stroke="#0063B8" stroke-width="4" stroke-miterlimit="10"/>
<path d="M39.9878 28.4263C40.3672 27.6768 40.3103 27.2414 39.7966 26.8888C39.2828 26.5363 38.9782 26.6547 38.1062 27.4813L35.2961 25.1585C35.4305 24.9452 35.544 24.7319 35.6874 24.5423C35.8196 24.3771 35.8292 24.1461 35.7111 23.9704C35.3226 23.1151 34.677 22.3998 33.8626 21.9224C33.0485 21.4453 32.1054 21.2291 31.1627 21.3041H30.7148C30.8671 21.1235 30.9778 20.9633 31.115 20.8271C31.9212 20.0509 32.9427 19.6686 34.0506 19.4584C35.2593 19.2392 36.5055 19.5277 37.4913 20.2553C37.7417 20.4314 38.0065 20.587 38.2827 20.7205C38.4665 20.8172 38.6719 20.8672 38.88 20.8655C39.362 20.8321 39.8379 20.99 40.2031 21.3041C40.5764 21.5773 40.9314 21.8742 41.2662 22.1929C41.4503 22.4043 41.5995 22.6432 41.7083 22.9009C41.7791 23.0677 41.8322 23.2415 41.8666 23.4194C42.1145 24.3911 42.7626 24.6488 43.6286 24.1039C44.3782 24.7379 45.1427 25.3689 45.8864 26.0206C46.051 26.1502 46.1541 26.3416 46.1712 26.5495C46.1881 26.7572 46.1175 26.9626 45.976 27.1168C45.8177 27.3272 45.6325 27.5138 45.4565 27.7092L43.3659 29.9579C42.903 30.4586 42.5864 30.4911 42.0518 30.0734C41.3679 29.5314 40.6868 28.9804 39.9879 28.4263L39.9878 28.4263Z" fill="white"/>
<path d="M37.5467 28.3465L36.2207 30.0084L24.1518 45.1179C23.8993 45.4853 23.4971 45.724 23.0512 45.7709C22.6054 45.8176 22.1614 45.6676 21.8373 45.3607C21.2759 44.8986 20.7084 44.4424 20.1498 43.9743C19.8109 43.7225 19.5986 43.3373 19.5682 42.9184C19.538 42.4993 19.6923 42.0881 19.9915 41.7907C24.8017 36.5015 29.6141 31.2141 34.4283 25.929C34.4579 25.9046 34.4887 25.8818 34.521 25.861L37.5467 28.3465Z" fill="white"/>
<path d="M46.8839 39.6787C46.7422 39.0356 46.4929 38.4208 46.1462 37.8594C45.4419 36.7813 44.3629 35.9975 43.1142 35.6567C41.8653 35.3157 40.5339 35.4417 39.3727 36.0109C39.3046 36.0425 39.2258 36.0425 39.1577 36.0109C38.19 35.3975 37.2076 34.805 36.2697 34.1532C35.967 33.9418 35.6685 33.7246 35.3737 33.5015L32.9844 36.3486C33.4383 36.7435 33.8823 37.1543 34.3164 37.5811C35.0362 38.2802 35.7022 39.0357 36.3832 39.7735C36.4514 39.8568 36.4845 39.9628 36.4757 40.0696C36.3853 40.7646 36.4403 41.4705 36.637 42.1434C37.0459 43.6545 38.1234 44.8998 39.5669 45.5297C40.8441 46.1208 42.312 46.1563 43.6168 45.6275C43.6664 45.5992 43.7132 45.5665 43.757 45.5297C43.7264 45.4942 43.6934 45.4605 43.6584 45.4291C42.6629 44.6113 41.6675 43.7938 40.6719 42.9761C40.5994 42.9223 40.5486 42.8444 40.5286 42.7568C40.4927 42.1139 40.4688 41.4681 40.4479 40.8223V40.8221C40.45 40.752 40.4752 40.6845 40.5196 40.6297C40.8063 40.2722 41.0979 39.9186 41.3946 39.5691L41.3948 39.5689C41.4443 39.5181 41.5093 39.4848 41.58 39.4743C42.2012 39.3765 42.8193 39.2788 43.4405 39.1988V39.1986C43.5472 39.1905 43.6535 39.2209 43.7391 39.2846C44.5007 39.9037 45.2532 40.5289 46.0059 41.1569C46.2806 41.3851 46.5494 41.6221 46.8511 41.8827C46.8719 41.7612 46.884 41.705 46.8898 41.6457C46.9277 41.3315 46.9644 41.0176 47.0002 40.7035L46.9167 39.8146L46.9169 39.8148C46.9038 39.77 46.8927 39.7245 46.884 39.6787L46.8839 39.6787Z" fill="white"/>
<path d="M27.5874 26.4266C27.3574 26.1629 27.208 25.9319 27.4082 25.5971C27.4218 25.5669 27.4309 25.5349 27.4351 25.5022C27.6982 24.4332 27.6161 23.3092 27.2001 22.2889C26.7843 21.2689 26.0558 20.404 25.1177 19.8169C23.7994 18.9739 22.1665 18.7709 20.6795 19.2659C20.5899 19.2926 20.5032 19.3399 20.3807 19.3903L20.7691 19.728C21.6551 20.5063 22.54 21.2854 23.4242 22.0655C23.4825 22.1168 23.5196 22.1875 23.5287 22.2641C23.5446 22.9021 23.5527 23.54 23.5527 24.178H23.5525C23.5498 24.2551 23.5215 24.3289 23.4719 24.3884C23.1731 24.7203 22.8954 25.052 22.5998 25.3721V25.3719C22.5352 25.4423 22.4492 25.4903 22.355 25.5083C21.7578 25.5882 21.1605 25.6533 20.5451 25.7335V25.7333C20.4198 25.7523 20.2934 25.7104 20.2047 25.6207L17.7677 23.4611C17.5854 23.3099 17.3973 23.1441 17.1792 22.9544L17 24.1128L17.0567 25.0283C17.0777 25.0727 17.0777 25.1142 17.1046 25.1587C17.215 25.5955 17.3506 26.0258 17.5108 26.4474C18.0658 27.7462 19.1518 28.7491 20.4974 29.2056C21.6067 29.6237 22.8302 29.6342 23.9468 29.2352C24.0348 29.199 24.1337 29.199 24.2216 29.2352C24.601 29.4722 24.9833 29.7062 25.3356 29.9758C25.9718 30.4617 26.6139 30.9446 27.244 31.4572L29.7289 28.6662C28.9802 27.9574 28.2663 27.2107 27.5874 26.4267L27.5874 26.4266Z" fill="white"/>
</svg>
