<svg width="64" height="64" viewBox="0 0 64 64" fill="none" xmlns="http://www.w3.org/2000/svg">
<path d="M32.3866 54.7733C44.7504 54.7733 54.7733 44.7504 54.7733 32.3866C54.7733 20.0228 44.7504 10 32.3866 10C20.0228 10 10 20.0228 10 32.3866C10 44.7504 20.0228 54.7733 32.3866 54.7733Z" fill="white" stroke="#2A2A2A"/>
<path d="M33.5448 40.0955C33.3976 40.1156 33.1624 40.1639 32.873 40.2294C32.4662 40.7577 31.8353 41.099 31.1239 41.099C30.8009 41.099 30.4936 41.0272 30.2166 40.9014C29.6289 41.0569 29.0852 41.2016 28.7018 41.2999C27.4736 41.6167 27.2907 41.3401 26.4832 40.8983C25.6748 40.4569 24.5363 39.8909 24.6671 39.4933C24.8671 38.884 25.7095 39.4757 26.8863 40.2964C28.0261 41.0915 28.8651 40.8961 28.9031 40.0952C28.943 39.2989 26.7126 37.9405 25.6755 37.2855C24.6186 36.6171 22.6061 36.9055 20.2276 38.0886C18.3423 39.0262 17 39.4936 17 39.4936L18.0081 43.307C18.6727 42.9098 20.1485 42.6653 22.1454 43.3123C24.0243 43.9216 26.7079 44.142 28.2981 43.9092C29.8873 43.6761 33.5799 42.1707 34.1493 41.7014C35.0969 40.9203 34.2792 39.9966 33.5448 40.0955Z" fill="black"/>
<path d="M31.1311 35.8806L29.9088 37.9246L29.9116 37.9249C29.7845 38.1397 29.7109 38.3923 29.7109 38.6625C29.7109 39.4545 30.3428 40.0956 31.1237 40.0956C31.9036 40.0956 32.5355 39.4544 32.5355 38.6625C32.5355 38.3938 32.4629 38.1431 32.3364 37.9283L32.3374 37.9264L31.1311 35.8806Z" fill="black"/>
<path d="M30.9224 34.0739C31.7014 34.0739 32.3342 33.4318 32.3342 32.6402C32.3342 32.3722 32.2616 32.1202 32.1352 31.9054L32.1361 31.9035L30.9302 29.8583L29.7079 31.9016H29.7113C29.5833 32.1171 29.5098 32.3696 29.5098 32.6395C29.5101 33.4312 30.1422 34.0739 30.9225 34.0739L30.9224 34.0739Z" fill="black"/>
<path d="M39.8635 26.4103L30.4414 27.0919L31.7617 30.0228L39.8635 26.4103Z" fill="black"/>
<path d="M46.5661 21.6612C45.9284 20.2448 44.2569 19.6117 42.8337 20.2466L29.9453 25.9931L30.3574 26.9087L43.2457 21.1616C44.1613 20.7539 45.2356 21.1607 45.6458 22.0711C46.0554 22.9818 45.6467 24.0502 44.7314 24.4588L31.8422 30.2052L32.2552 31.1218L45.1436 25.3748C46.5674 24.7407 47.2049 23.0773 46.5659 21.6612L46.5661 21.6612Z" fill="black"/>
<path d="M27.694 37.0843C28.4739 37.0843 29.1067 36.4432 29.1067 35.6515C29.1067 35.3829 29.0332 35.1316 28.9067 34.9167L28.9077 34.9155L27.7008 32.8694L26.4794 34.9137H26.4828C26.3548 35.1294 26.2812 35.3811 26.2812 35.6519C26.2816 36.4426 26.914 37.0844 27.694 37.0844L27.694 37.0843Z" fill="black"/>
<path d="M34.8809 14.6775H36.3209V18.2396H34.8809V14.6775Z" fill="white"/>
<path d="M32.3247 53.649C20.5476 53.649 11 44.1016 11 32.3249C11 20.5475 20.5476 11 32.3247 11C44.1018 11 53.6493 20.5475 53.6493 32.3249C53.6493 44.1016 44.1018 53.649 32.3247 53.649Z" stroke="#F23A4B" stroke-width="4" stroke-miterlimit="10"/>
</svg>
