<svg width="64" height="64" viewBox="0 0 64 64" fill="none" xmlns="http://www.w3.org/2000/svg">
<path d="M58.8017 52.0836L34.3383 9.57781C33.1274 7.47403 30.0919 7.47403 28.8811 9.57781L4.40724 52.1019C3.24794 54.1163 4.70185 56.6306 7.0259 56.6306H56.1722C58.5058 56.6306 59.9657 54.1061 58.8017 52.0836Z" fill="#E9B803"/>
<path d="M39 31.2499V37.9997C39 38.2677 38.857 38.5153 38.625 38.6493C38.393 38.7832 38.107 38.7832 37.875 38.6493C37.643 38.5153 37.5 38.2677 37.5 37.9997V37.2498H32.25V37.9997C32.518 37.9997 32.7656 38.1427 32.8995 38.3747C33.0335 38.6067 33.0335 38.8927 32.8995 39.1247C32.7656 39.3567 32.518 39.4997 32.25 39.4997H31.5V40.9996C31.5 41.2677 31.357 41.5152 31.125 41.6492C30.893 41.7831 30.607 41.7831 30.375 41.6492C30.143 41.5152 30 41.2676 30 40.9996V39.4997H27V43.2496C27 43.5176 26.857 43.7652 26.625 43.8991C26.393 44.033 26.107 44.033 25.875 43.8991C25.643 43.7652 25.5 43.5176 25.5 43.2496V39.4997H24.75C24.482 39.4997 24.2344 39.3567 24.1005 39.1247C23.9665 38.8927 23.9665 38.6067 24.1005 38.3747C24.2344 38.1427 24.482 37.9997 24.75 37.9997V32.7499C24.75 32.551 24.829 32.3602 24.9696 32.2195C25.1103 32.0789 25.3011 31.9999 25.5 31.9999H29.25V30.5H27.75C27.482 30.5 27.2344 30.357 27.1005 30.125C26.9665 29.8929 26.9665 29.607 27.1005 29.375C27.2344 29.143 27.482 29 27.75 29H32.25C32.518 29 32.7656 29.143 32.8995 29.375C33.0335 29.607 33.0335 29.8929 32.8995 30.125C32.7656 30.357 32.518 30.5 32.25 30.5H30.75V31.9999H37.5V31.2499C37.5 30.9819 37.643 30.7343 37.875 30.6004C38.107 30.4665 38.393 30.4665 38.625 30.6004C38.857 30.7343 39 30.9819 39 31.2499ZM38.25 46.9995C37.4352 47.002 36.6593 47.3478 36.1125 47.952C35.846 48.3046 35.4296 48.512 34.9875 48.512C34.5454 48.512 34.129 48.3046 33.8625 47.952C33.3194 47.3559 32.5539 47.011 31.7474 46.9995H31.5V43.9995C31.5 43.7315 31.357 43.4839 31.125 43.35C30.8929 43.2161 30.607 43.2161 30.375 43.35C30.143 43.4839 30 43.7315 30 43.9995V47.607C29.8575 47.727 29.7224 47.8395 29.6099 47.952C29.3417 48.3019 28.9259 48.5071 28.4849 48.5071C28.0441 48.5071 27.6283 48.3019 27.3599 47.952C27.2474 47.847 27.1274 47.727 26.9849 47.6145V46.2495C26.9849 45.9815 26.8421 45.7339 26.6099 45.5999C26.3779 45.466 26.0921 45.466 25.8599 45.5999C25.6279 45.7339 25.4849 45.9815 25.4849 46.2495V46.9994H25.2299C24.4178 47.0041 23.6449 47.3497 23.1 47.952C22.8278 48.2838 22.4263 48.483 21.9974 48.4994C21.5633 48.4874 21.1556 48.2876 20.8799 47.952C20.3362 47.3482 19.5626 47.0023 18.75 46.9994C18.482 46.9994 18.2344 47.1424 18.1004 47.3744C17.9665 47.6065 17.9665 47.8924 18.1004 48.1244C18.2344 48.3564 18.482 48.4994 18.75 48.4994C19.1843 48.5115 19.5919 48.7112 19.8674 49.0468C20.4095 49.653 21.1843 49.9995 21.9974 49.9995C22.8107 49.9995 23.5853 49.653 24.1275 49.0468C24.3957 48.6969 24.8116 48.4917 25.2525 48.4917C25.6933 48.4917 26.1092 48.6969 26.3775 49.0468C26.921 49.6533 27.6969 50 28.5112 50C29.3256 50 30.1016 49.6533 30.645 49.0468C30.9115 48.6942 31.3279 48.4868 31.77 48.4868C32.2119 48.4868 32.6285 48.6943 32.895 49.0468C33.4409 49.6491 34.2158 49.9925 35.0286 49.9925C35.8416 49.9925 36.6165 49.6491 37.1624 49.0468C37.4313 48.7189 37.8264 48.52 38.2499 48.4994C38.518 48.4994 38.7656 48.3564 38.8995 48.1244C39.0334 47.8924 39.0334 47.6065 38.8995 47.3744C38.7656 47.1424 38.518 46.9994 38.2499 46.9994L38.25 46.9995ZM29.25 45.4995V41.7496C29.25 41.4816 29.107 41.234 28.875 41.1001C28.643 40.9662 28.357 40.9662 28.125 41.1001C27.893 41.234 27.75 41.4816 27.75 41.7496V45.4995C27.75 45.7675 27.893 46.0151 28.125 46.149C28.357 46.283 28.643 46.283 28.875 46.149C29.107 46.0151 29.25 45.7675 29.25 45.4995Z" fill="#2A2A2A"/>
<path d="M10.0122 51.8709L31.606 14.469L53.1998 51.8709H10.0122ZM56.6851 52.741L32.6885 11.1775C32.4625 10.7862 32.058 10.5526 31.606 10.5526C31.1541 10.5526 30.7494 10.7862 30.5236 11.1775L6.52691 52.741C6.30095 53.1323 6.30092 53.5998 6.52688 53.9911C6.75274 54.3824 7.15744 54.616 7.60939 54.616H55.6029C56.0545 54.616 56.4591 54.3824 56.6851 53.9911C56.9111 53.5998 56.9111 53.1323 56.6851 52.741Z" fill="#2A2A2A"/>
</svg>
