<svg width="64" height="64" viewBox="0 0 64 64" fill="none" xmlns="http://www.w3.org/2000/svg">
<path d="M32.3247 53.649C20.5476 53.649 11 44.1016 11 32.3249C11 20.5475 20.5476 11 32.3247 11C44.1018 11 53.6493 20.5475 53.6493 32.3249C53.6493 44.1016 44.1018 53.649 32.3247 53.649Z" fill="#0063B8" stroke="#0063B8" stroke-width="4" stroke-miterlimit="10"/>
<path d="M18 41.8522H31.4816V45.4404C30.8515 45.8064 30.1362 45.9997 29.4075 46.0004H19.037C18.7623 45.9997 18.4988 45.89 18.3047 45.6957C18.1105 45.5015 18.0007 45.2381 18 44.9634L18 41.8522Z" fill="white"/>
<path d="M47.0382 41.8522V44.9634C47.0375 45.2381 46.9278 45.5016 46.7336 45.6957C46.5394 45.8899 46.276 45.9997 46.0012 46.0004H35.6307C34.902 45.9997 34.1868 45.8064 33.5566 45.4404V41.8522L47.0382 41.8522Z" fill="white"/>
<path d="M18 37.7039H31.4816V39.778H18V37.7039Z" fill="white"/>
<path d="M33.5566 37.7039H47.0383V39.778H33.5566V37.7039Z" fill="white"/>
<path d="M26.9705 18.3215L31.4816 29.6147V35.6296H18V32.5184C18.0007 32.2437 18.1104 31.9802 18.3046 31.786C18.4988 31.5918 18.7623 31.4821 19.037 31.4814C20.1372 31.4816 21.1926 31.0448 21.9706 30.2668C22.7486 29.4888 23.1855 28.4334 23.1852 27.3332V20.0739C23.1845 19.8419 23.2618 19.6167 23.4049 19.4343C23.5477 19.2516 23.7482 19.1227 23.9734 19.0678L26.9705 18.3215Z" fill="white"/>
<path d="M35.9624 18L32.5193 26.6182L29.0762 18H35.9624Z" fill="white"/>
<path d="M47.0383 32.5185V35.6297H33.5566V29.6148L38.0678 18.3217L41.0648 19.0684V19.0682C41.29 19.1231 41.4905 19.252 41.6333 19.4347C41.7764 19.6171 41.8537 19.8423 41.853 20.0742V27.3336C41.8528 28.4338 42.2896 29.4892 43.0676 30.2672C43.8456 31.0452 44.901 31.482 46.0012 31.4818C46.276 31.4825 46.5394 31.5922 46.7336 31.7864C46.9278 31.9806 47.0375 32.2441 47.0382 32.5188L47.0383 32.5185Z" fill="white"/>
</svg>
