<svg width="64" height="64" viewBox="0 0 64 64" fill="none" xmlns="http://www.w3.org/2000/svg">
<path d="M32.3247 53.649C20.5476 53.649 11 44.1016 11 32.3249C11 20.5475 20.5476 11 32.3247 11C44.1018 11 53.6493 20.5475 53.6493 32.3249C53.6493 44.1016 44.1018 53.649 32.3247 53.649Z" fill="#0063B8" stroke="#0063B8" stroke-width="4" stroke-miterlimit="10"/>
<path d="M43.1261 39.6924C42.9199 39.5214 42.6617 39.4281 42.3953 39.4281C42.1286 39.4281 41.8704 39.5214 41.6642 39.6924L38.1817 42.5067C37.9425 42.7008 37.6491 42.8138 37.3432 42.8295C36.7199 42.8657 35.9386 42.8004 33.8892 42.9783C32.8535 43.0228 31.8416 42.6557 31.0696 41.9554C30.9596 41.8626 30.9113 41.7149 30.9448 41.5742C30.9781 41.4333 31.0876 41.324 31.227 41.2919L35.67 40.2619V40.2617C36.2011 40.0165 36.5657 39.507 36.6302 38.9198C36.626 38.5768 36.4712 38.2534 36.2083 38.0371C35.9454 37.8206 35.6012 37.7335 35.2686 37.7991L29.7366 38.4229C27.524 37.919 25.2122 38.1125 23.1113 38.9777V46.4057L31.4597 47.5447V47.5444C31.6993 47.5682 31.9413 47.5535 32.1762 47.5009L38.1097 46.1917C38.5081 46.1044 38.873 45.9015 39.1594 45.6078L43.2225 41.4259C43.4519 41.1903 43.5724 40.8675 43.5539 40.5373C43.5354 40.2072 43.38 39.9001 43.1258 39.6923L43.1261 39.6924Z" fill="white"/>
<path d="M22.072 38.2223H17.9293C17.6004 38.2223 17.334 38.5091 17.334 38.863V47.3594C17.334 47.7133 17.6004 48.0001 17.9293 48.0001H22.072C22.4006 48.0001 22.6673 47.7133 22.6673 47.3594V38.863C22.6673 38.6929 22.6044 38.53 22.4929 38.41C22.3812 38.2897 22.2298 38.2223 22.072 38.2223ZM20.2556 41.4181C19.9526 41.4181 19.662 41.2887 19.4475 41.0578C19.2332 40.8272 19.113 40.5144 19.113 40.188C19.113 39.8619 19.2332 39.5489 19.4475 39.3183C19.662 39.0877 19.9526 38.958 20.2556 38.958C20.5588 38.958 20.8495 39.0877 21.064 39.3183C21.2782 39.5489 21.3985 39.8619 21.3985 40.188C21.3985 40.5144 21.2782 40.8272 21.064 41.0578C20.8495 41.2887 20.5588 41.4181 20.2556 41.4181Z" fill="white"/>
<path d="M20.2232 39.5556C19.9536 39.5556 19.7105 39.7179 19.6074 39.967C19.5042 40.2162 19.5613 40.5029 19.7519 40.6937C19.9426 40.8842 20.2293 40.9413 20.4783 40.8381C20.7274 40.7348 20.89 40.4919 20.89 40.2221C20.89 39.8541 20.5915 39.5556 20.2232 39.5556Z" fill="white"/>
<path d="M44.7069 21.3324C44.2975 20.6988 43.6861 20.2272 42.9755 19.9962V19.5555H40.8138V20.0503C40.1712 20.2992 39.6223 20.7479 39.2456 21.3324H37.539C36.5427 21.3286 35.5859 21.7279 34.88 22.4421C34.1739 23.1566 33.7773 24.127 33.7773 25.139V27.1111H37.3329V25.5615C37.3317 25.395 37.3974 25.235 37.5147 25.1186C37.6323 25.0022 37.791 24.9392 37.9549 24.944H39.2456C39.8475 25.8812 40.8748 26.4463 41.9763 26.4463C43.078 26.4463 44.105 25.8812 44.7069 24.944H46.2218V21.3324L44.7069 21.3324Z" fill="white"/>
<path d="M33.6942 27.5556H37.8673C37.9615 27.5556 38.052 27.5907 38.1187 27.6532C38.1854 27.7158 38.2229 27.8006 38.2229 27.889V28.5555C38.2229 28.6438 38.1854 28.7287 38.1187 28.7912C38.052 28.8538 37.9615 28.8889 37.8673 28.8889H33.6905C33.4944 28.8889 33.3352 28.7396 33.3352 28.5555V27.9155C33.327 27.822 33.3615 27.7297 33.4299 27.6611C33.4981 27.5928 33.5941 27.5544 33.6942 27.5556Z" fill="white"/>
<path d="M43.1128 16.523C43.1128 16.2342 42.8788 16 42.5902 16H41.4169C41.2776 15.999 41.1438 16.0538 41.0449 16.1518C40.946 16.25 40.8906 16.3837 40.8906 16.523V16.8889H43.1128L43.1128 16.523Z" fill="white"/>
<path d="M43.4162 19.1112C43.4938 19.1112 43.5564 19.0558 43.5564 18.9876V17.4601C43.5567 17.3914 43.4943 17.3352 43.4162 17.3334H40.4941C40.416 17.3352 40.3536 17.3914 40.3536 17.4601C40.3554 17.5467 40.2897 17.6231 40.1949 17.6455L36.4453 18.0842V18.7992H40.1689C40.2178 18.7992 40.265 18.8162 40.2995 18.8468C40.3343 18.8772 40.3536 18.9187 40.3536 18.9618C40.3536 19.0561 40.4165 19.1112 40.4941 19.1112L43.4162 19.1112Z" fill="white"/>
<path d="M35.595 30.6666C35.595 30.6666 32.5073 35.5555 35.595 35.5555C38.5073 35.5555 35.595 30.6666 35.595 30.6666Z" fill="white"/>
</svg>
